<mxfile host="65bd71144e">
    <diagram id="SZuu5nfk6psI7qI_n3bW" name="Page-1">
        <mxGraphModel dx="1513" dy="682" grid="1" gridSize="10" guides="1" tooltips="1" connect="1" arrows="1" fold="1" page="1" pageScale="1" pageWidth="850" pageHeight="1100" math="0" shadow="0">
            <root>
                <mxCell id="0"/>
                <mxCell id="1" parent="0"/>
                <mxCell id="22" value="" style="shape=table;startSize=0;container=1;collapsible=0;childLayout=tableLayout;fillColor=none;" parent="1" vertex="1">
                    <mxGeometry x="40" y="80" width="380" height="40" as="geometry"/>
                </mxCell>
                <mxCell id="23" value="" style="shape=tableRow;horizontal=0;startSize=0;swimlaneHead=0;swimlaneBody=0;top=0;left=0;bottom=0;right=0;collapsible=0;dropTarget=0;fillColor=none;points=[[0,0.5],[1,0.5]];portConstraint=eastwest;" parent="22" vertex="1">
                    <mxGeometry width="380" height="20" as="geometry"/>
                </mxCell>
                <mxCell id="24" value="id" style="shape=partialRectangle;html=1;whiteSpace=wrap;connectable=0;overflow=hidden;fillColor=none;top=0;left=0;bottom=0;right=0;pointerEvents=1;" parent="23" vertex="1">
                    <mxGeometry width="64" height="20" as="geometry">
                        <mxRectangle width="64" height="20" as="alternateBounds"/>
                    </mxGeometry>
                </mxCell>
                <mxCell id="25" value="Clinical 1" style="shape=partialRectangle;html=1;whiteSpace=wrap;connectable=0;overflow=hidden;fillColor=none;top=0;left=0;bottom=0;right=0;pointerEvents=1;" parent="23" vertex="1">
                    <mxGeometry x="64" width="62" height="20" as="geometry">
                        <mxRectangle width="62" height="20" as="alternateBounds"/>
                    </mxGeometry>
                </mxCell>
                <mxCell id="26" value="Clinical 2" style="shape=partialRectangle;html=1;whiteSpace=wrap;connectable=0;overflow=hidden;fillColor=none;top=0;left=0;bottom=0;right=0;pointerEvents=1;" parent="23" vertex="1">
                    <mxGeometry x="126" width="64" height="20" as="geometry">
                        <mxRectangle width="64" height="20" as="alternateBounds"/>
                    </mxGeometry>
                </mxCell>
                <mxCell id="27" value="Diagnostic 1" style="shape=partialRectangle;html=1;whiteSpace=wrap;connectable=0;overflow=hidden;fillColor=none;top=0;left=0;bottom=0;right=0;pointerEvents=1;" parent="23" vertex="1">
                    <mxGeometry x="190" width="74" height="20" as="geometry">
                        <mxRectangle width="74" height="20" as="alternateBounds"/>
                    </mxGeometry>
                </mxCell>
                <mxCell id="28" value="Diagnostic 2" style="shape=partialRectangle;html=1;whiteSpace=wrap;connectable=0;overflow=hidden;fillColor=none;top=0;left=0;bottom=0;right=0;pointerEvents=1;" parent="23" vertex="1">
                    <mxGeometry x="264" width="74" height="20" as="geometry">
                        <mxRectangle width="74" height="20" as="alternateBounds"/>
                    </mxGeometry>
                </mxCell>
                <mxCell id="29" value="visit #" style="shape=partialRectangle;html=1;whiteSpace=wrap;connectable=0;overflow=hidden;fillColor=none;top=0;left=0;bottom=0;right=0;pointerEvents=1;" parent="23" vertex="1">
                    <mxGeometry x="338" width="42" height="20" as="geometry">
                        <mxRectangle width="42" height="20" as="alternateBounds"/>
                    </mxGeometry>
                </mxCell>
                <mxCell id="30" value="" style="shape=tableRow;horizontal=0;startSize=0;swimlaneHead=0;swimlaneBody=0;top=0;left=0;bottom=0;right=0;collapsible=0;dropTarget=0;fillColor=none;points=[[0,0.5],[1,0.5]];portConstraint=eastwest;" parent="22" vertex="1">
                    <mxGeometry y="20" width="380" height="20" as="geometry"/>
                </mxCell>
                <mxCell id="31" value="patient 1" style="shape=partialRectangle;html=1;whiteSpace=wrap;connectable=0;overflow=hidden;fillColor=none;top=0;left=0;bottom=0;right=0;pointerEvents=1;" parent="30" vertex="1">
                    <mxGeometry width="64" height="20" as="geometry">
                        <mxRectangle width="64" height="20" as="alternateBounds"/>
                    </mxGeometry>
                </mxCell>
                <mxCell id="32" value="1.0" style="shape=partialRectangle;html=1;whiteSpace=wrap;connectable=0;overflow=hidden;fillColor=none;top=0;left=0;bottom=0;right=0;pointerEvents=1;" parent="30" vertex="1">
                    <mxGeometry x="64" width="62" height="20" as="geometry">
                        <mxRectangle width="62" height="20" as="alternateBounds"/>
                    </mxGeometry>
                </mxCell>
                <mxCell id="33" value="1.5" style="shape=partialRectangle;html=1;whiteSpace=wrap;connectable=0;overflow=hidden;fillColor=none;top=0;left=0;bottom=0;right=0;pointerEvents=1;" parent="30" vertex="1">
                    <mxGeometry x="126" width="64" height="20" as="geometry">
                        <mxRectangle width="64" height="20" as="alternateBounds"/>
                    </mxGeometry>
                </mxCell>
                <mxCell id="34" value="NA" style="shape=partialRectangle;html=1;whiteSpace=wrap;connectable=0;overflow=hidden;fillColor=none;top=0;left=0;bottom=0;right=0;pointerEvents=1;" parent="30" vertex="1">
                    <mxGeometry x="190" width="74" height="20" as="geometry">
                        <mxRectangle width="74" height="20" as="alternateBounds"/>
                    </mxGeometry>
                </mxCell>
                <mxCell id="35" value="NA" style="shape=partialRectangle;html=1;whiteSpace=wrap;connectable=0;overflow=hidden;fillColor=none;top=0;left=0;bottom=0;right=0;pointerEvents=1;" parent="30" vertex="1">
                    <mxGeometry x="264" width="74" height="20" as="geometry">
                        <mxRectangle width="74" height="20" as="alternateBounds"/>
                    </mxGeometry>
                </mxCell>
                <mxCell id="36" value="2" style="shape=partialRectangle;html=1;whiteSpace=wrap;connectable=0;overflow=hidden;fillColor=none;top=0;left=0;bottom=0;right=0;pointerEvents=1;" parent="30" vertex="1">
                    <mxGeometry x="338" width="42" height="20" as="geometry">
                        <mxRectangle width="42" height="20" as="alternateBounds"/>
                    </mxGeometry>
                </mxCell>
                <mxCell id="52" value="" style="shape=table;startSize=0;container=1;collapsible=0;childLayout=tableLayout;fillColor=none;" parent="1" vertex="1">
                    <mxGeometry x="40" y="160" width="380" height="40" as="geometry"/>
                </mxCell>
                <mxCell id="53" value="" style="shape=tableRow;horizontal=0;startSize=0;swimlaneHead=0;swimlaneBody=0;top=0;left=0;bottom=0;right=0;collapsible=0;dropTarget=0;fillColor=none;points=[[0,0.5],[1,0.5]];portConstraint=eastwest;" parent="52" vertex="1">
                    <mxGeometry width="380" height="20" as="geometry"/>
                </mxCell>
                <mxCell id="54" value="id" style="shape=partialRectangle;html=1;whiteSpace=wrap;connectable=0;overflow=hidden;fillColor=none;top=0;left=0;bottom=0;right=0;pointerEvents=1;" parent="53" vertex="1">
                    <mxGeometry width="64" height="20" as="geometry">
                        <mxRectangle width="64" height="20" as="alternateBounds"/>
                    </mxGeometry>
                </mxCell>
                <mxCell id="55" value="Clinical 1" style="shape=partialRectangle;html=1;whiteSpace=wrap;connectable=0;overflow=hidden;fillColor=none;top=0;left=0;bottom=0;right=0;pointerEvents=1;" parent="53" vertex="1">
                    <mxGeometry x="64" width="62" height="20" as="geometry">
                        <mxRectangle width="62" height="20" as="alternateBounds"/>
                    </mxGeometry>
                </mxCell>
                <mxCell id="56" value="Clinical 2" style="shape=partialRectangle;html=1;whiteSpace=wrap;connectable=0;overflow=hidden;fillColor=none;top=0;left=0;bottom=0;right=0;pointerEvents=1;" parent="53" vertex="1">
                    <mxGeometry x="126" width="64" height="20" as="geometry">
                        <mxRectangle width="64" height="20" as="alternateBounds"/>
                    </mxGeometry>
                </mxCell>
                <mxCell id="57" value="Diagnostic 1" style="shape=partialRectangle;html=1;whiteSpace=wrap;connectable=0;overflow=hidden;fillColor=none;top=0;left=0;bottom=0;right=0;pointerEvents=1;" parent="53" vertex="1">
                    <mxGeometry x="190" width="74" height="20" as="geometry">
                        <mxRectangle width="74" height="20" as="alternateBounds"/>
                    </mxGeometry>
                </mxCell>
                <mxCell id="58" value="Diagnostic 2" style="shape=partialRectangle;html=1;whiteSpace=wrap;connectable=0;overflow=hidden;fillColor=none;top=0;left=0;bottom=0;right=0;pointerEvents=1;" parent="53" vertex="1">
                    <mxGeometry x="264" width="74" height="20" as="geometry">
                        <mxRectangle width="74" height="20" as="alternateBounds"/>
                    </mxGeometry>
                </mxCell>
                <mxCell id="59" value="visit #" style="shape=partialRectangle;html=1;whiteSpace=wrap;connectable=0;overflow=hidden;fillColor=none;top=0;left=0;bottom=0;right=0;pointerEvents=1;" parent="53" vertex="1">
                    <mxGeometry x="338" width="42" height="20" as="geometry">
                        <mxRectangle width="42" height="20" as="alternateBounds"/>
                    </mxGeometry>
                </mxCell>
                <mxCell id="60" value="" style="shape=tableRow;horizontal=0;startSize=0;swimlaneHead=0;swimlaneBody=0;top=0;left=0;bottom=0;right=0;collapsible=0;dropTarget=0;fillColor=none;points=[[0,0.5],[1,0.5]];portConstraint=eastwest;" parent="52" vertex="1">
                    <mxGeometry y="20" width="380" height="20" as="geometry"/>
                </mxCell>
                <mxCell id="61" value="patient 1" style="shape=partialRectangle;html=1;whiteSpace=wrap;connectable=0;overflow=hidden;fillColor=none;top=0;left=0;bottom=0;right=0;pointerEvents=1;" parent="60" vertex="1">
                    <mxGeometry width="64" height="20" as="geometry">
                        <mxRectangle width="64" height="20" as="alternateBounds"/>
                    </mxGeometry>
                </mxCell>
                <mxCell id="62" value="NA" style="shape=partialRectangle;html=1;whiteSpace=wrap;connectable=0;overflow=hidden;fillColor=none;top=0;left=0;bottom=0;right=0;pointerEvents=1;" parent="60" vertex="1">
                    <mxGeometry x="64" width="62" height="20" as="geometry">
                        <mxRectangle width="62" height="20" as="alternateBounds"/>
                    </mxGeometry>
                </mxCell>
                <mxCell id="63" value="NA" style="shape=partialRectangle;html=1;whiteSpace=wrap;connectable=0;overflow=hidden;fillColor=none;top=0;left=0;bottom=0;right=0;pointerEvents=1;" parent="60" vertex="1">
                    <mxGeometry x="126" width="64" height="20" as="geometry">
                        <mxRectangle width="64" height="20" as="alternateBounds"/>
                    </mxGeometry>
                </mxCell>
                <mxCell id="64" value="2.0" style="shape=partialRectangle;html=1;whiteSpace=wrap;connectable=0;overflow=hidden;fillColor=none;top=0;left=0;bottom=0;right=0;pointerEvents=1;" parent="60" vertex="1">
                    <mxGeometry x="190" width="74" height="20" as="geometry">
                        <mxRectangle width="74" height="20" as="alternateBounds"/>
                    </mxGeometry>
                </mxCell>
                <mxCell id="65" value="4.0" style="shape=partialRectangle;html=1;whiteSpace=wrap;connectable=0;overflow=hidden;fillColor=none;top=0;left=0;bottom=0;right=0;pointerEvents=1;" parent="60" vertex="1">
                    <mxGeometry x="264" width="74" height="20" as="geometry">
                        <mxRectangle width="74" height="20" as="alternateBounds"/>
                    </mxGeometry>
                </mxCell>
                <mxCell id="66" value="1" style="shape=partialRectangle;html=1;whiteSpace=wrap;connectable=0;overflow=hidden;fillColor=none;top=0;left=0;bottom=0;right=0;pointerEvents=1;" parent="60" vertex="1">
                    <mxGeometry x="338" width="42" height="20" as="geometry">
                        <mxRectangle width="42" height="20" as="alternateBounds"/>
                    </mxGeometry>
                </mxCell>
                <mxCell id="71" value="" style="shape=table;startSize=0;container=1;collapsible=0;childLayout=tableLayout;fillColor=none;" parent="1" vertex="1">
                    <mxGeometry x="460" y="120" width="380" height="40" as="geometry"/>
                </mxCell>
                <mxCell id="72" value="" style="shape=tableRow;horizontal=0;startSize=0;swimlaneHead=0;swimlaneBody=0;top=0;left=0;bottom=0;right=0;collapsible=0;dropTarget=0;fillColor=none;points=[[0,0.5],[1,0.5]];portConstraint=eastwest;" parent="71" vertex="1">
                    <mxGeometry width="380" height="20" as="geometry"/>
                </mxCell>
                <mxCell id="73" value="id" style="shape=partialRectangle;html=1;whiteSpace=wrap;connectable=0;overflow=hidden;fillColor=none;top=0;left=0;bottom=0;right=0;pointerEvents=1;" parent="72" vertex="1">
                    <mxGeometry width="64" height="20" as="geometry">
                        <mxRectangle width="64" height="20" as="alternateBounds"/>
                    </mxGeometry>
                </mxCell>
                <mxCell id="74" value="Clinical 1" style="shape=partialRectangle;html=1;whiteSpace=wrap;connectable=0;overflow=hidden;fillColor=none;top=0;left=0;bottom=0;right=0;pointerEvents=1;" parent="72" vertex="1">
                    <mxGeometry x="64" width="62" height="20" as="geometry">
                        <mxRectangle width="62" height="20" as="alternateBounds"/>
                    </mxGeometry>
                </mxCell>
                <mxCell id="75" value="Clinical 2" style="shape=partialRectangle;html=1;whiteSpace=wrap;connectable=0;overflow=hidden;fillColor=none;top=0;left=0;bottom=0;right=0;pointerEvents=1;" parent="72" vertex="1">
                    <mxGeometry x="126" width="64" height="20" as="geometry">
                        <mxRectangle width="64" height="20" as="alternateBounds"/>
                    </mxGeometry>
                </mxCell>
                <mxCell id="76" value="Diagnostic 1" style="shape=partialRectangle;html=1;whiteSpace=wrap;connectable=0;overflow=hidden;fillColor=none;top=0;left=0;bottom=0;right=0;pointerEvents=1;" parent="72" vertex="1">
                    <mxGeometry x="190" width="74" height="20" as="geometry">
                        <mxRectangle width="74" height="20" as="alternateBounds"/>
                    </mxGeometry>
                </mxCell>
                <mxCell id="77" value="Diagnostic 2" style="shape=partialRectangle;html=1;whiteSpace=wrap;connectable=0;overflow=hidden;fillColor=none;top=0;left=0;bottom=0;right=0;pointerEvents=1;" parent="72" vertex="1">
                    <mxGeometry x="264" width="74" height="20" as="geometry">
                        <mxRectangle width="74" height="20" as="alternateBounds"/>
                    </mxGeometry>
                </mxCell>
                <mxCell id="78" value="visit #" style="shape=partialRectangle;html=1;whiteSpace=wrap;connectable=0;overflow=hidden;fillColor=none;top=0;left=0;bottom=0;right=0;pointerEvents=1;" parent="72" vertex="1">
                    <mxGeometry x="338" width="42" height="20" as="geometry">
                        <mxRectangle width="42" height="20" as="alternateBounds"/>
                    </mxGeometry>
                </mxCell>
                <mxCell id="79" value="" style="shape=tableRow;horizontal=0;startSize=0;swimlaneHead=0;swimlaneBody=0;top=0;left=0;bottom=0;right=0;collapsible=0;dropTarget=0;fillColor=none;points=[[0,0.5],[1,0.5]];portConstraint=eastwest;" parent="71" vertex="1">
                    <mxGeometry y="20" width="380" height="20" as="geometry"/>
                </mxCell>
                <mxCell id="80" value="patient 1" style="shape=partialRectangle;html=1;whiteSpace=wrap;connectable=0;overflow=hidden;fillColor=none;top=0;left=0;bottom=0;right=0;pointerEvents=1;" parent="79" vertex="1">
                    <mxGeometry width="64" height="20" as="geometry">
                        <mxRectangle width="64" height="20" as="alternateBounds"/>
                    </mxGeometry>
                </mxCell>
                <mxCell id="81" value="1.0" style="shape=partialRectangle;html=1;whiteSpace=wrap;connectable=0;overflow=hidden;fillColor=none;top=0;left=0;bottom=0;right=0;pointerEvents=1;" parent="79" vertex="1">
                    <mxGeometry x="64" width="62" height="20" as="geometry">
                        <mxRectangle width="62" height="20" as="alternateBounds"/>
                    </mxGeometry>
                </mxCell>
                <mxCell id="82" value="1.5" style="shape=partialRectangle;html=1;whiteSpace=wrap;connectable=0;overflow=hidden;fillColor=none;top=0;left=0;bottom=0;right=0;pointerEvents=1;" parent="79" vertex="1">
                    <mxGeometry x="126" width="64" height="20" as="geometry">
                        <mxRectangle width="64" height="20" as="alternateBounds"/>
                    </mxGeometry>
                </mxCell>
                <mxCell id="83" value="2.0" style="shape=partialRectangle;html=1;whiteSpace=wrap;connectable=0;overflow=hidden;fillColor=none;top=0;left=0;bottom=0;right=0;pointerEvents=1;" parent="79" vertex="1">
                    <mxGeometry x="190" width="74" height="20" as="geometry">
                        <mxRectangle width="74" height="20" as="alternateBounds"/>
                    </mxGeometry>
                </mxCell>
                <mxCell id="84" value="4.0" style="shape=partialRectangle;html=1;whiteSpace=wrap;connectable=0;overflow=hidden;fillColor=none;top=0;left=0;bottom=0;right=0;pointerEvents=1;" parent="79" vertex="1">
                    <mxGeometry x="264" width="74" height="20" as="geometry">
                        <mxRectangle width="74" height="20" as="alternateBounds"/>
                    </mxGeometry>
                </mxCell>
                <mxCell id="85" value="--" style="shape=partialRectangle;html=1;whiteSpace=wrap;connectable=0;overflow=hidden;fillColor=none;top=0;left=0;bottom=0;right=0;pointerEvents=1;" parent="79" vertex="1">
                    <mxGeometry x="338" width="42" height="20" as="geometry">
                        <mxRectangle width="42" height="20" as="alternateBounds"/>
                    </mxGeometry>
                </mxCell>
                <mxCell id="89" style="edgeStyle=orthogonalEdgeStyle;shape=link;curved=1;html=1;fillColor=#000000;" parent="1" source="23" edge="1">
                    <mxGeometry relative="1" as="geometry">
                        <mxPoint x="460" y="150" as="targetPoint"/>
                    </mxGeometry>
                </mxCell>
                <mxCell id="90" style="edgeStyle=orthogonalEdgeStyle;shape=link;curved=1;html=1;fillColor=#000000;" parent="1" source="60" edge="1">
                    <mxGeometry relative="1" as="geometry">
                        <mxPoint x="460" y="150" as="targetPoint"/>
                    </mxGeometry>
                </mxCell>
                <mxCell id="120" value="" style="shape=table;startSize=0;container=1;collapsible=0;childLayout=tableLayout;fillColor=none;" vertex="1" parent="1">
                    <mxGeometry x="40" y="280" width="380" height="40" as="geometry"/>
                </mxCell>
                <mxCell id="121" value="" style="shape=tableRow;horizontal=0;startSize=0;swimlaneHead=0;swimlaneBody=0;top=0;left=0;bottom=0;right=0;collapsible=0;dropTarget=0;fillColor=none;points=[[0,0.5],[1,0.5]];portConstraint=eastwest;" vertex="1" parent="120">
                    <mxGeometry width="380" height="20" as="geometry"/>
                </mxCell>
                <mxCell id="122" value="id" style="shape=partialRectangle;html=1;whiteSpace=wrap;connectable=0;overflow=hidden;fillColor=none;top=0;left=0;bottom=0;right=0;pointerEvents=1;" vertex="1" parent="121">
                    <mxGeometry width="64" height="20" as="geometry">
                        <mxRectangle width="64" height="20" as="alternateBounds"/>
                    </mxGeometry>
                </mxCell>
                <mxCell id="123" value="Clinical 1" style="shape=partialRectangle;html=1;whiteSpace=wrap;connectable=0;overflow=hidden;fillColor=none;top=0;left=0;bottom=0;right=0;pointerEvents=1;" vertex="1" parent="121">
                    <mxGeometry x="64" width="62" height="20" as="geometry">
                        <mxRectangle width="62" height="20" as="alternateBounds"/>
                    </mxGeometry>
                </mxCell>
                <mxCell id="124" value="Clinical 2" style="shape=partialRectangle;html=1;whiteSpace=wrap;connectable=0;overflow=hidden;fillColor=none;top=0;left=0;bottom=0;right=0;pointerEvents=1;" vertex="1" parent="121">
                    <mxGeometry x="126" width="64" height="20" as="geometry">
                        <mxRectangle width="64" height="20" as="alternateBounds"/>
                    </mxGeometry>
                </mxCell>
                <mxCell id="125" value="Diagnostic 1" style="shape=partialRectangle;html=1;whiteSpace=wrap;connectable=0;overflow=hidden;fillColor=none;top=0;left=0;bottom=0;right=0;pointerEvents=1;" vertex="1" parent="121">
                    <mxGeometry x="190" width="74" height="20" as="geometry">
                        <mxRectangle width="74" height="20" as="alternateBounds"/>
                    </mxGeometry>
                </mxCell>
                <mxCell id="126" value="Diagnostic 2" style="shape=partialRectangle;html=1;whiteSpace=wrap;connectable=0;overflow=hidden;fillColor=none;top=0;left=0;bottom=0;right=0;pointerEvents=1;" vertex="1" parent="121">
                    <mxGeometry x="264" width="74" height="20" as="geometry">
                        <mxRectangle width="74" height="20" as="alternateBounds"/>
                    </mxGeometry>
                </mxCell>
                <mxCell id="127" value="visit #" style="shape=partialRectangle;html=1;whiteSpace=wrap;connectable=0;overflow=hidden;fillColor=none;top=0;left=0;bottom=0;right=0;pointerEvents=1;" vertex="1" parent="121">
                    <mxGeometry x="338" width="42" height="20" as="geometry">
                        <mxRectangle width="42" height="20" as="alternateBounds"/>
                    </mxGeometry>
                </mxCell>
                <mxCell id="128" value="" style="shape=tableRow;horizontal=0;startSize=0;swimlaneHead=0;swimlaneBody=0;top=0;left=0;bottom=0;right=0;collapsible=0;dropTarget=0;fillColor=none;points=[[0,0.5],[1,0.5]];portConstraint=eastwest;" vertex="1" parent="120">
                    <mxGeometry y="20" width="380" height="20" as="geometry"/>
                </mxCell>
                <mxCell id="129" value="patient 2" style="shape=partialRectangle;html=1;whiteSpace=wrap;connectable=0;overflow=hidden;fillColor=none;top=0;left=0;bottom=0;right=0;pointerEvents=1;" vertex="1" parent="128">
                    <mxGeometry width="64" height="20" as="geometry">
                        <mxRectangle width="64" height="20" as="alternateBounds"/>
                    </mxGeometry>
                </mxCell>
                <mxCell id="130" value="1.5" style="shape=partialRectangle;html=1;whiteSpace=wrap;connectable=0;overflow=hidden;fillColor=none;top=0;left=0;bottom=0;right=0;pointerEvents=1;" vertex="1" parent="128">
                    <mxGeometry x="64" width="62" height="20" as="geometry">
                        <mxRectangle width="62" height="20" as="alternateBounds"/>
                    </mxGeometry>
                </mxCell>
                <mxCell id="131" value="2.0" style="shape=partialRectangle;html=1;whiteSpace=wrap;connectable=0;overflow=hidden;fillColor=none;top=0;left=0;bottom=0;right=0;pointerEvents=1;" vertex="1" parent="128">
                    <mxGeometry x="126" width="64" height="20" as="geometry">
                        <mxRectangle width="64" height="20" as="alternateBounds"/>
                    </mxGeometry>
                </mxCell>
                <mxCell id="132" value="NA" style="shape=partialRectangle;html=1;whiteSpace=wrap;connectable=0;overflow=hidden;fillColor=none;top=0;left=0;bottom=0;right=0;pointerEvents=1;" vertex="1" parent="128">
                    <mxGeometry x="190" width="74" height="20" as="geometry">
                        <mxRectangle width="74" height="20" as="alternateBounds"/>
                    </mxGeometry>
                </mxCell>
                <mxCell id="133" value="NA" style="shape=partialRectangle;html=1;whiteSpace=wrap;connectable=0;overflow=hidden;fillColor=none;top=0;left=0;bottom=0;right=0;pointerEvents=1;" vertex="1" parent="128">
                    <mxGeometry x="264" width="74" height="20" as="geometry">
                        <mxRectangle width="74" height="20" as="alternateBounds"/>
                    </mxGeometry>
                </mxCell>
                <mxCell id="134" value="4" style="shape=partialRectangle;html=1;whiteSpace=wrap;connectable=0;overflow=hidden;fillColor=none;top=0;left=0;bottom=0;right=0;pointerEvents=1;" vertex="1" parent="128">
                    <mxGeometry x="338" width="42" height="20" as="geometry">
                        <mxRectangle width="42" height="20" as="alternateBounds"/>
                    </mxGeometry>
                </mxCell>
                <mxCell id="135" value="" style="shape=table;startSize=0;container=1;collapsible=0;childLayout=tableLayout;fillColor=none;" vertex="1" parent="1">
                    <mxGeometry x="40" y="360" width="380" height="40" as="geometry"/>
                </mxCell>
                <mxCell id="136" value="" style="shape=tableRow;horizontal=0;startSize=0;swimlaneHead=0;swimlaneBody=0;top=0;left=0;bottom=0;right=0;collapsible=0;dropTarget=0;fillColor=none;points=[[0,0.5],[1,0.5]];portConstraint=eastwest;" vertex="1" parent="135">
                    <mxGeometry width="380" height="20" as="geometry"/>
                </mxCell>
                <mxCell id="137" value="id" style="shape=partialRectangle;html=1;whiteSpace=wrap;connectable=0;overflow=hidden;fillColor=none;top=0;left=0;bottom=0;right=0;pointerEvents=1;" vertex="1" parent="136">
                    <mxGeometry width="64" height="20" as="geometry">
                        <mxRectangle width="64" height="20" as="alternateBounds"/>
                    </mxGeometry>
                </mxCell>
                <mxCell id="138" value="Clinical 1" style="shape=partialRectangle;html=1;whiteSpace=wrap;connectable=0;overflow=hidden;fillColor=none;top=0;left=0;bottom=0;right=0;pointerEvents=1;" vertex="1" parent="136">
                    <mxGeometry x="64" width="62" height="20" as="geometry">
                        <mxRectangle width="62" height="20" as="alternateBounds"/>
                    </mxGeometry>
                </mxCell>
                <mxCell id="139" value="Clinical 2" style="shape=partialRectangle;html=1;whiteSpace=wrap;connectable=0;overflow=hidden;fillColor=none;top=0;left=0;bottom=0;right=0;pointerEvents=1;" vertex="1" parent="136">
                    <mxGeometry x="126" width="64" height="20" as="geometry">
                        <mxRectangle width="64" height="20" as="alternateBounds"/>
                    </mxGeometry>
                </mxCell>
                <mxCell id="140" value="Diagnostic 1" style="shape=partialRectangle;html=1;whiteSpace=wrap;connectable=0;overflow=hidden;fillColor=none;top=0;left=0;bottom=0;right=0;pointerEvents=1;" vertex="1" parent="136">
                    <mxGeometry x="190" width="74" height="20" as="geometry">
                        <mxRectangle width="74" height="20" as="alternateBounds"/>
                    </mxGeometry>
                </mxCell>
                <mxCell id="141" value="Diagnostic 2" style="shape=partialRectangle;html=1;whiteSpace=wrap;connectable=0;overflow=hidden;fillColor=none;top=0;left=0;bottom=0;right=0;pointerEvents=1;" vertex="1" parent="136">
                    <mxGeometry x="264" width="74" height="20" as="geometry">
                        <mxRectangle width="74" height="20" as="alternateBounds"/>
                    </mxGeometry>
                </mxCell>
                <mxCell id="142" value="visit #" style="shape=partialRectangle;html=1;whiteSpace=wrap;connectable=0;overflow=hidden;fillColor=none;top=0;left=0;bottom=0;right=0;pointerEvents=1;" vertex="1" parent="136">
                    <mxGeometry x="338" width="42" height="20" as="geometry">
                        <mxRectangle width="42" height="20" as="alternateBounds"/>
                    </mxGeometry>
                </mxCell>
                <mxCell id="143" value="" style="shape=tableRow;horizontal=0;startSize=0;swimlaneHead=0;swimlaneBody=0;top=0;left=0;bottom=0;right=0;collapsible=0;dropTarget=0;fillColor=none;points=[[0,0.5],[1,0.5]];portConstraint=eastwest;" vertex="1" parent="135">
                    <mxGeometry y="20" width="380" height="20" as="geometry"/>
                </mxCell>
                <mxCell id="144" value="patient 2" style="shape=partialRectangle;html=1;whiteSpace=wrap;connectable=0;overflow=hidden;fillColor=none;top=0;left=0;bottom=0;right=0;pointerEvents=1;" vertex="1" parent="143">
                    <mxGeometry width="64" height="20" as="geometry">
                        <mxRectangle width="64" height="20" as="alternateBounds"/>
                    </mxGeometry>
                </mxCell>
                <mxCell id="145" value="NA" style="shape=partialRectangle;html=1;whiteSpace=wrap;connectable=0;overflow=hidden;fillColor=none;top=0;left=0;bottom=0;right=0;pointerEvents=1;" vertex="1" parent="143">
                    <mxGeometry x="64" width="62" height="20" as="geometry">
                        <mxRectangle width="62" height="20" as="alternateBounds"/>
                    </mxGeometry>
                </mxCell>
                <mxCell id="146" value="NA" style="shape=partialRectangle;html=1;whiteSpace=wrap;connectable=0;overflow=hidden;fillColor=none;top=0;left=0;bottom=0;right=0;pointerEvents=1;" vertex="1" parent="143">
                    <mxGeometry x="126" width="64" height="20" as="geometry">
                        <mxRectangle width="64" height="20" as="alternateBounds"/>
                    </mxGeometry>
                </mxCell>
                <mxCell id="147" value="3.5" style="shape=partialRectangle;html=1;whiteSpace=wrap;connectable=0;overflow=hidden;fillColor=none;top=0;left=0;bottom=0;right=0;pointerEvents=1;" vertex="1" parent="143">
                    <mxGeometry x="190" width="74" height="20" as="geometry">
                        <mxRectangle width="74" height="20" as="alternateBounds"/>
                    </mxGeometry>
                </mxCell>
                <mxCell id="148" value="1.0" style="shape=partialRectangle;html=1;whiteSpace=wrap;connectable=0;overflow=hidden;fillColor=none;top=0;left=0;bottom=0;right=0;pointerEvents=1;" vertex="1" parent="143">
                    <mxGeometry x="264" width="74" height="20" as="geometry">
                        <mxRectangle width="74" height="20" as="alternateBounds"/>
                    </mxGeometry>
                </mxCell>
                <mxCell id="149" value="2" style="shape=partialRectangle;html=1;whiteSpace=wrap;connectable=0;overflow=hidden;fillColor=none;top=0;left=0;bottom=0;right=0;pointerEvents=1;" vertex="1" parent="143">
                    <mxGeometry x="338" width="42" height="20" as="geometry">
                        <mxRectangle width="42" height="20" as="alternateBounds"/>
                    </mxGeometry>
                </mxCell>
                <mxCell id="150" value="" style="shape=table;startSize=0;container=1;collapsible=0;childLayout=tableLayout;fillColor=none;" vertex="1" parent="1">
                    <mxGeometry x="460" y="320" width="380" height="40" as="geometry"/>
                </mxCell>
                <mxCell id="151" value="" style="shape=tableRow;horizontal=0;startSize=0;swimlaneHead=0;swimlaneBody=0;top=0;left=0;bottom=0;right=0;collapsible=0;dropTarget=0;fillColor=none;points=[[0,0.5],[1,0.5]];portConstraint=eastwest;" vertex="1" parent="150">
                    <mxGeometry width="380" height="20" as="geometry"/>
                </mxCell>
                <mxCell id="152" value="id" style="shape=partialRectangle;html=1;whiteSpace=wrap;connectable=0;overflow=hidden;fillColor=none;top=0;left=0;bottom=0;right=0;pointerEvents=1;" vertex="1" parent="151">
                    <mxGeometry width="64" height="20" as="geometry">
                        <mxRectangle width="64" height="20" as="alternateBounds"/>
                    </mxGeometry>
                </mxCell>
                <mxCell id="153" value="Clinical 1" style="shape=partialRectangle;html=1;whiteSpace=wrap;connectable=0;overflow=hidden;fillColor=none;top=0;left=0;bottom=0;right=0;pointerEvents=1;" vertex="1" parent="151">
                    <mxGeometry x="64" width="62" height="20" as="geometry">
                        <mxRectangle width="62" height="20" as="alternateBounds"/>
                    </mxGeometry>
                </mxCell>
                <mxCell id="154" value="Clinical 2" style="shape=partialRectangle;html=1;whiteSpace=wrap;connectable=0;overflow=hidden;fillColor=none;top=0;left=0;bottom=0;right=0;pointerEvents=1;" vertex="1" parent="151">
                    <mxGeometry x="126" width="64" height="20" as="geometry">
                        <mxRectangle width="64" height="20" as="alternateBounds"/>
                    </mxGeometry>
                </mxCell>
                <mxCell id="155" value="Diagnostic 1" style="shape=partialRectangle;html=1;whiteSpace=wrap;connectable=0;overflow=hidden;fillColor=none;top=0;left=0;bottom=0;right=0;pointerEvents=1;" vertex="1" parent="151">
                    <mxGeometry x="190" width="74" height="20" as="geometry">
                        <mxRectangle width="74" height="20" as="alternateBounds"/>
                    </mxGeometry>
                </mxCell>
                <mxCell id="156" value="Diagnostic 2" style="shape=partialRectangle;html=1;whiteSpace=wrap;connectable=0;overflow=hidden;fillColor=none;top=0;left=0;bottom=0;right=0;pointerEvents=1;" vertex="1" parent="151">
                    <mxGeometry x="264" width="74" height="20" as="geometry">
                        <mxRectangle width="74" height="20" as="alternateBounds"/>
                    </mxGeometry>
                </mxCell>
                <mxCell id="157" value="visit #" style="shape=partialRectangle;html=1;whiteSpace=wrap;connectable=0;overflow=hidden;fillColor=none;top=0;left=0;bottom=0;right=0;pointerEvents=1;" vertex="1" parent="151">
                    <mxGeometry x="338" width="42" height="20" as="geometry">
                        <mxRectangle width="42" height="20" as="alternateBounds"/>
                    </mxGeometry>
                </mxCell>
                <mxCell id="158" value="" style="shape=tableRow;horizontal=0;startSize=0;swimlaneHead=0;swimlaneBody=0;top=0;left=0;bottom=0;right=0;collapsible=0;dropTarget=0;fillColor=none;points=[[0,0.5],[1,0.5]];portConstraint=eastwest;" vertex="1" parent="150">
                    <mxGeometry y="20" width="380" height="20" as="geometry"/>
                </mxCell>
                <mxCell id="159" value="patient 1" style="shape=partialRectangle;html=1;whiteSpace=wrap;connectable=0;overflow=hidden;fillColor=none;top=0;left=0;bottom=0;right=0;pointerEvents=1;" vertex="1" parent="158">
                    <mxGeometry width="64" height="20" as="geometry">
                        <mxRectangle width="64" height="20" as="alternateBounds"/>
                    </mxGeometry>
                </mxCell>
                <mxCell id="160" value="1.5" style="shape=partialRectangle;html=1;whiteSpace=wrap;connectable=0;overflow=hidden;fillColor=none;top=0;left=0;bottom=0;right=0;pointerEvents=1;" vertex="1" parent="158">
                    <mxGeometry x="64" width="62" height="20" as="geometry">
                        <mxRectangle width="62" height="20" as="alternateBounds"/>
                    </mxGeometry>
                </mxCell>
                <mxCell id="161" value="2.0" style="shape=partialRectangle;html=1;whiteSpace=wrap;connectable=0;overflow=hidden;fillColor=none;top=0;left=0;bottom=0;right=0;pointerEvents=1;" vertex="1" parent="158">
                    <mxGeometry x="126" width="64" height="20" as="geometry">
                        <mxRectangle width="64" height="20" as="alternateBounds"/>
                    </mxGeometry>
                </mxCell>
                <mxCell id="162" value="3.5" style="shape=partialRectangle;html=1;whiteSpace=wrap;connectable=0;overflow=hidden;fillColor=none;top=0;left=0;bottom=0;right=0;pointerEvents=1;" vertex="1" parent="158">
                    <mxGeometry x="190" width="74" height="20" as="geometry">
                        <mxRectangle width="74" height="20" as="alternateBounds"/>
                    </mxGeometry>
                </mxCell>
                <mxCell id="163" value="1.0" style="shape=partialRectangle;html=1;whiteSpace=wrap;connectable=0;overflow=hidden;fillColor=none;top=0;left=0;bottom=0;right=0;pointerEvents=1;" vertex="1" parent="158">
                    <mxGeometry x="264" width="74" height="20" as="geometry">
                        <mxRectangle width="74" height="20" as="alternateBounds"/>
                    </mxGeometry>
                </mxCell>
                <mxCell id="164" value="--" style="shape=partialRectangle;html=1;whiteSpace=wrap;connectable=0;overflow=hidden;fillColor=none;top=0;left=0;bottom=0;right=0;pointerEvents=1;" vertex="1" parent="158">
                    <mxGeometry x="338" width="42" height="20" as="geometry">
                        <mxRectangle width="42" height="20" as="alternateBounds"/>
                    </mxGeometry>
                </mxCell>
                <mxCell id="165" style="edgeStyle=orthogonalEdgeStyle;shape=link;curved=1;html=1;fillColor=#000000;" edge="1" parent="1" source="121">
                    <mxGeometry relative="1" as="geometry">
                        <mxPoint x="460" y="350" as="targetPoint"/>
                    </mxGeometry>
                </mxCell>
                <mxCell id="166" style="edgeStyle=orthogonalEdgeStyle;shape=link;curved=1;html=1;fillColor=#000000;" edge="1" parent="1" source="143">
                    <mxGeometry relative="1" as="geometry">
                        <mxPoint x="460" y="350" as="targetPoint"/>
                    </mxGeometry>
                </mxCell>
                <mxCell id="168" value="" style="shape=curlyBracket;whiteSpace=wrap;html=1;rounded=1;flipH=1;labelPosition=right;verticalLabelPosition=middle;align=left;verticalAlign=middle;fillColor=#000000;size=0.45454545454545453;strokeWidth=7;strokeColor=#000000;" vertex="1" parent="1">
                    <mxGeometry x="870" y="110" width="170" height="470" as="geometry"/>
                </mxCell>
                <mxCell id="170" value="&lt;font color=&quot;#ffffff&quot; style=&quot;font-size: 72px;&quot;&gt;...&lt;/font&gt;" style="text;strokeColor=none;align=center;fillColor=none;html=1;verticalAlign=middle;whiteSpace=wrap;rounded=0;rotation=90;" vertex="1" parent="1">
                    <mxGeometry x="220" y="520" width="60" height="30" as="geometry"/>
                </mxCell>
                <mxCell id="173" value="Overall Data Aggregations shown per Feature" style="text;strokeColor=none;align=center;fillColor=none;html=1;verticalAlign=middle;whiteSpace=wrap;rounded=0;fontSize=18;" vertex="1" parent="1">
                    <mxGeometry x="1133.16" y="160" width="410" height="30" as="geometry"/>
                </mxCell>
                <mxCell id="222" value="" style="shape=image;verticalLabelPosition=bottom;labelBackgroundColor=default;verticalAlign=top;aspect=fixed;imageAspect=0;image=data:image/png,iVBORw0KGgoAAAANSUhEUgAAAyEAAAGVCAYAAADpKv65AAAAAXNSR0IArs4c6QAAAARnQU1BAACxjwv8YQUAAAAJcEhZcwAAEnQAABJ0Ad5mH3gAAId6SURBVHhe7Z0FvFVV+r9fpDtUEGkFxO5WbB07xy7sxrHGGrtHx5/dhd3d3YNgEbaESKd08+dZns3/eOcCF/QcuNzn0f3hnh1rr73y/a6sNGs2ISIiIiIiUiSWyv0rIiIiIiJSFBQhIiIiIiJSVBQhIiIiIiJSVBQhIiIiIiJSVBQhIiIiIiJSVFwdS2QBIctMnz49Zs6cGdWqVYtKlSrlrpRv+K6pU6fGUkstFVWqVCnqd/HuGTNmpINwrVy5cvIDfhEpJKQ58jPpjXS3pMA38W3F+i7yLe+k3FjY8mPatGnJnapVqxY071POwV9dxhTL/yJLCuYSWSLAiM0qwazyzTdqFwbczI58hg8fHvfcc0+ccsopMXjw4IV2v6yU5odCMGjQoDjhhBPSt40ZMyZ3tjiMGzcuHnrooTjqqKNit912i4svvji+//773NW/lrnFq1Q8Jk+eHB9++GEcf/zx8f7776fff5bFIW1R7j322GMpP3fr1i13trB8++23cd5558Vtt90W48ePz50tOxMnToz77rsvTj755Pjhhx9yZ/96ECCXXXZZXHjhhfHTTz/lzpaduZUfpJ0HHnggTjzxxPjuu+9yZ0VkXihCZIngl19+if/85z/xt7/9LR077rhj7LXXXqlCw7hFOCyoWPjyyy/j1Vdfjf79++fO/M6UKVOib9++8fXXX/8lRsvcwL+InOeffz569+6dWtkKCd/CN/fr129OS2ExoDLnGzFAECNrrrlmdOjQIerWrZu746+le/fu8dprr8Wvv/6aOyMVFfLYiBEjUrqnjMB4/zMg3t9+++147733ipqHSkKeGjBgQPqu0aNH584WFvIu5VSfPn1SQ9CCQthT1n711VfJrUJB2CASvvnmmwUWS3wX5eOLL74YP//88x++s1j+F1mSUITIEgGtaFQqtGy1bNkyVl111VhuueXS7+uvvz6uueaaGDly5P+0Xs0LWkbvv//+/2nVWnrppePggw+OK664Iho3blywYUsYSFR4d9xxR/z3v/9N4qeQEF6E00EHHRT169fPnS0OH330UarE//73v8dJJ50UO+20UwrbQoCRSItloXpapOKCoKEH4sknnyxoA4UsPAyVOu200+Kf//xnrLDCCrmzZYOGIOqZu+66K3r06PEHoVm9evXYf//94+qrr4527drlzorIvFCEyBJFq1at4rDDDktDpf7xj3/Ecccdl4zZt956K7UKLkjrJC2jiICxY8fmzvxOrVq1YrXVVostttgi6tSpUzARgmCaMGFC6nUZNWpUwYd91a5dO7beeuv0bTVq1MidLQ5DhgxJPR8rrrhitG7dOgk95tsUgmHDhqWes4UZMjIviC9aRgsdT7L4QkMBPWwDBw5c4tJBlr4XpCFncYS5GhtssEFstNFG0aBBg9zZskGcUh9QJv/2229/CAvml6yyyiqx1VZbRaNGjXJnRWReODFdlggYj/zvf/87zWu4+eabo23btuk8Bic9CQ8++GB07tw5tbT36tUrdZlzL0YDFcZmm22WKqasB+Dhhx+e494aa6wRbdq0SWJmu+22S8OF3nnnndSSfvTRR8cyyyyThAhu4Q96UBAvtOxjUPNM+/btU0sZMAad59dZZ51UCb777rupBbVp06ax5ZZbxoYbbpiepaWNsctcX2mllWLllVdO/kP84GZpw5X4tpdeeinWXnvtJCho9WOIAMPK+JYddtghNt1001R5UpESLnw3FSdDCG6//fbUi7TttttGvXr1Umsu/v3ss8+SUKAC53s32WSTWH/99dM9wLOE6QcffJCGkCEg8C/u0DNV2sRYvrFnz57x1FNPpZ4JWHfddWPZZZdN8bT99tunlkfGhzO8JRv+0Lx589h8882TvzN3EWuffvpp8gP+JC7wZxavWVgx5IthewhM4hXRSg8Q72rRokUKO/x+5JFHznGbb0PE4tdjjz02mjRpEpMmTYobb7wxxQdDxxiGgj95VxY3xB/hwbAY3CJNEr+E77xAHN10000pXRKGDPvj23Fzm222ifXWWy/5nzAhvjF+SDMl0wSCmzRK+iGuCW++FzdwN0uPfF/Xrl2TSCeNEMaECemEOEacAkKYdEtL8M4775y+mTDBXb6J3ivChjRC+iId0OtEnsBw432EMWkCoTs3iEvikbkMGPOkQcKC7ybt843kNwxCehwId9IvYUI6JW7Ib3wn+SaDtMRQoZdffjnlT9Iu/sb9G264Ic4555zYZZdd5nxvSQgXwoheO/IU303+pTzAX/ibNEF6Jgw4V7NmzVQGUE7w98cff5y+jbAhfkjr3EdZkOUlenVfeeWV5FfyA2UDQwjxP0YuQ02bNWs2Z+Iz7hAPhDXhRZok3VMOke8vv/zy9AyQHuhVpYeYoWPECemXdJmVmUCavfPOO9M1yj3ejz9wZ+ONN07f+vrrr6e0STgQn4Rbly5dUtgz36Jhw4Y51/4X4oiwJG1SRhMOpDXcJHxvueWW9BtIS6QhyqEff/wxfe/yyy+fvpF7+AYaFUgL+KFTp05z0jaQ9uidIl8deOCBqVxg3hvhyfwzyifcJL+SD4hb4oBwJPw7duyYnsHPn3zySVx77bXpvtVXXz31pHAf+YH0SX4nLuhNps6ALN3gf9zOygLinfjMGrGIE/xF2c37eBdhQ54ib1NeZY1D+JfrxCV5Fmi4oRxYGHElsqiofNFscn+LlFuoICmUMagwhrKWKCoOKn0ODESMILrSqcy4RmsWlQbGC4U4lTsV2BdffJEMBtzDLXo8MCJoqccIevbZZ+ONN96IXXfdNRX4GDIYwUzKpGLGCKbyo/LGaKNCoqKlAnrzzTfnDPOiAsFwGDp0aHz++eep8qcrH79gqGD0UXFR0XFgcGLUUInlV7QZuHX33XenSnSttdZK/sZd/EWFT4VG5Y3/CK9bb701GVFUhoThJZdckio6KlTcxxhCxGHEYvThLv6h4uSbCBuMGeZYEK5UpBglVJ4Ykdn34PfMaMrAuEAwEF4YAEDliwjAqKGCx4/ZcDQqXsIU45f7MXIygYMBivjEWCde8RPxSvgT7sQr7uIn4gkjCr9jtNCzRbxilNx7770pDPfcc885IoR3PvPMM2kcOPFN3BAO//rXv1I6IX6JK9zEOCKNkXaIB/yKEULYkgYJH0QU8TC3HjTSHG7zjRiNpA3G9WP4YIzhHu8lTDjPfYQh4UE8AumRb8WYI/6Jb9I6xhD+xY+EC+mJvICRxnme4z7cxL+ED0Ylccc3kO67zDY08SPfRthgLOMX3MLoJ/3gBmmOcONv0g5xgv+Ji3kJMcKSRgD8QJjyLvIK30GaJP3zDtIZopL5RMQ7hihDLkmr5GfSC34nv/J+xAoClLRKGOI234Ag4VlEO/fPrQeOtEgaJ1x5N2GKXwmDzE/EO99I2qZRgTjOjFmMYPIbaYBw5rsIY76LdE+64N3c9/jjj8ejjz6a3CcNcC/+xH3SKe5xL99I3CN+EB1c417SPeGAcKThIRse9MILL6QDP5OGyZ9ZAwPfjl/xM8+ef/75KW4JI9zhXeQT7qHRgHRAeBO2+JF0xEG+RdRQXpZGljYRfqRpnsd9/EzZgv8RB6QTIL8S7vyLn7mO+CZ9kHfxN/n/ueeeS4Y+76ZM5jtwm3C76qqrUpxR9vHMddddN6fRgHgibZNWERGUH8QB1wkb/IsAAPzHOygjKAcoX2nowQ/kafxAQwZ+ID5JB5T3NO7gFmkGvxLn+AuBl30n+Y8wJ85JQ4Qt95K3iAf8QJmFm9Q9uEm48134kbgkXZMWSU8i5QFFiCwRZCIEQ4cWUIwn/qZie+KJJ5LBccABByTDmYKa1iKMDlr1qDRpfaPAx/ilYuDAWMCA4jmGeNHKxL1U9FQoVEh77713qpSplDCCMRj32WefVIniNoYhRg8VB63PtHZiQOJXKnX8sccee6SeBfyFkcE9nOcbqEipsGmBZOUoWs+yHpGSRj1Q8fMtVOq01GEU4yZiBreogBFpVORUjhh3RxxxRLqPb6U1EUMDv2OEY7QxvIQwYKI/53k/IohKFj9SSWIM4n6nTp3SwgC07GYVMPfgl5LGHfdjIFKBU/kTVnwj78GYxTDC0MGw4RzCgNZ57iP8MRwxKnA/MwoJxyxeafXP4hWhRcVMCz8VPMYMraKHHHJIMkSIV8IMQw5/8r5MhHAv34g/6KHB+OBd9CJxDrGH3zD2+E6MAa5xD2PEaSXlHbjHd2Lg0JOD8VIaGEF8N9+HsYlfaOnneeISo5NvoXWUXgUMLowa0ju/8T9xhgjAmMQPiCfCBr/TYs47MGpIa3wfz9CqTN4h7ZH+MZCJA1pmCXMMV8IdY5D34y++mfjDYMNYJX3iH4yj//u//0vGL/OnuA/3CWda1zHY5gb5IDO0+W78TVxieGKo8Zv3Y2CSvshP5AfCg54M0h5hh39Iy/gBgw4BRS8FvV6HHnpo+k7SIHmDb+M831IynWZgeJNvCSNauolD4pu8gBjmmxBJGMcIPFaKIi3iH36TH/g20iZu8B08h1HL+wkX7sOgJN2SFjGQKR/Is+Q70hZCMgsD4hwDnXspi4hrwo28jIFPPifuMxHCb4xe0glxRb4g/vEDBi5xTZgQ73wv5SY9AaRv4oLyk/cjpnCTcpFw49s5j/DHjXmJEIxs0ibxRtqgvCQcyaeUdcQ934I/acxASJOOeQ9pjjzPtxPOnCd8Sa98M3FJHOI3RDHpnDxHDwt5l3s5T1qgzMCfhDHv5DdxQNjwDtIO4Y2f8B9pkPKTfE0Zsu+++yb/kw54J3FP+qDeIM9TPmb1AvmDOKQcpR4hjvEXbpEOeZY0m/UI4y/inbSCf8mzhD1pLSuXESaEB99FuUgDRFYuI45EygPOCZElCgpmKjgmjXNQgVG4U4FRkWCE5RuGVJgYLhTiWYs2YJRjEFCRUqgjTqjYqKhLQkWCwUMlTAWGeximuE0FS8WGUUGFlIEBhQFAZYsxwIEfMaaoXDEEqEgwUqigMJ4xQjio8KmYSgMDkGcwungfBgYGKecxAjmHgUGFjaHIN/J9mcGdD0YT4g4jH4OV78ENKlMME57FSKGSJtwQXggQwoqKdvfdd0/3YBhgDJQkEyFUnHwrBxU/z2NkYARj1GBUEY6EKWGGIKPiJpyo8DHs+D5EBX7Dj1m84g/uQxwChg1uY0wQTlm8YmQvDIQNRkCWnjCyMa4wXjBAMQAJO/zEPXwrRjz+IQ3MjSxssmFpGCMYJcQVvR/4m/DFGOU6BgiiGHcRtxg9GKEYM/iB8OAgjuiFwOjEwAPcxG38hz8Jb37TG0ZrLekkH4QL6RXDFH+R5nkPRiRpi/djHBPnhDGGH+/mXgy3rFV5bpBH+bYs/ngWgcE7yMukYYzGDOIfP5CXCA/SIPeSLwkH4BmMPvIRQ+qIG4xHwpewnJvwyIdwJ14QyIQRB+8l/PnOrKwgHRNG5FXCmjRBHiaNYYQSzoQt6ZlwJswRs3xbPrhDmO23334pvfMunsUf3E84E9+ULbyL9E++JG4Q8/ilJJRz+IH7CFfCgDzDuxC4+WmSb8VAx9BGNGViKutxwR3iCD8SjrhFmp0XGPrEBaKe8MMNniM+Dj/88CQm8sl6iriX+OVfygDSMWFC/FLu4n/Cmn9J24QNIPj5LvxFuiO/lgblLvFIOYO7xA2/SXe4QWMW4UE5Q91AfPIv+Y6wJ82WVoZSFlCG4SbhSLgTlnw3wgVRTxmWgRuIHUQy8UjYkGdIT4hwRCRQLuMH0i7xQnrK0j1pXKS8oAiRJQqMYoQIhhOGMRUF47GPOeaYZLxjWGOs0W2OWKG1NmuponLk+QUFQ58eBYwDxAhjqVmRi4MhOQy5osWOyiyDXgwMUrrOM6gIETm0yM+LrEUVIw//ZgcVPGDIUwkjPggD3s85KjSew6+0vGJgYoBjkFPBloQKkQoO45LhYxzMjSD8skqeypDf3IPRm3034cqQEq5jkBNG+HtBwN3MCKa1N3ObXheMML6Z63w338XftHBm8UprLfcRDqWJoD9LFocMbcIgAAxf/EGYI85IW5m/GfLEeQQg/84rPAh74gaDIhOcpF+MKdIMRm9m9GCgcI3WVcQn4UIeIE4IO4ZtZH4gPRIfhAkGDUYncU/6p5cA0U7YMTY9M3qIw3xIp1mLMmDAEwaEB2kXN/mNPzFYGU5HbyTpA//NLx0Qn4QPw4bwO/7hXwxS/MN3Ec4ZhAkGHYYg8D38nQ0LA/Im342fEAX4lfv4FkTA3Frt88HI5TmG7ZAeGapI+JY1bREuGJxPP/10SpvER5ZGEW/kyXwQAAieTCBhQBPvpHXihDDgOcIEwxwDGf9xIEAIk5JGN+FBaz15iOFQhC3DDHEPt/LjhvDj/QiDLK0RN6QVzhGW3AOkfwxy/DcvKDcokwgzRBBxRzyQlniW/JS5CZSnpBnKrAcffHBOOsb/GPd8D/HKN5NXaGgi3SLOEEqkFe7Db1zPvqMkPE+aI04pvwkb4gbhil8Jm4WBYYKUfaQd8kQGaRChQ7rMFyGUxTRaIVjxE/6l0YRwQtjzTYQXYoz0wvLzhAXDs8jz+flCpDygCJElCioxVsViMiYHvSGslEXBDogBDDGMLYwB5knQUobhSKGeGfILAhUDFQRGIEYJrXxU9By0dGEkUmnkt7ZTuVDZ5rfAco5jfhVJZghQKWNwZwffAIQBRgGVM5U4FTWVHucxVLKeAQwPWvHm1quC32iFo+eBcMuMAMafUzkTXhi8iCv+5l3Zd3PQs0TFj5E3t3fMC9zGqOXd+e7SMkpY06pLBU14UNljPOTHK/fSuoyRVtZ4pYKfGyWNZ+4lTvOHVRF3+Jv0QFrI9zfGEUYGrfX8Oy9wm3STH268h988m280c45rfCPvJz1i3BBGGLj56ZGwI93RMkurMd+EkYZQwNBHxNFzxb2IQAzeTHBm8K7MeAT+zRdh/MZAZagO6Y60gtuMw0fckC7m1gvEeQQSeTSb5I1/6D3CWMN9vis/LjC0S/ZkZHGS+Z1/OUj/mb+B/EYc8u/8oCeClnL8wLBF/Ed+yIz4eUE4kmcRLxi3CBkWFqDsIY2SZkqmUeIpX0RglBLOhBF+wE3SNvBd+d/AN/Jd+eFCHsXIxsCmQYFhovSiMLwPQx838yFdlQwb3k1+Ly3MSU/zS9f4GX/gZiaaMvi7ZH6i7CK+yd9ZGs4OztMLk82pQHiSrikzSOe8hzzHb/IcgnNuEAfMwaHRgMYCGluIm2zoZsmwKSuEFd9KuOSHI7/J36TJ/MYpwpy8lR8uxCVhzb2EP+6QDunhRNAxfwoxSXpk2BZlj0h5QREiSxRUhLT6IzowujFSswKdFi1aZukFoeXw9NNPTyLlyiuvTEMSqBRLkm+wzA0qBYxCnmdIAStasVZ8/sE5WiYzcDe/opkbpb0fY4VWO4wYVr/Jjmx4DYYfLeNUrBhvVKCECa2XHLRIYyDjb1ro8g3dfLLrrBp06aWXpvkTjEum1Q2jFWOSypED99mdueR3cxDOxENZwjIf3OU7GLJSmrtnn312GgJF5YzowBhE7J1xxhkpXhGhzEWgsi8LxAffjKGUD+E9t54c7s+Px0wQMKQCI7w0fxMepM2FjX+YV1hm6ZFeNeYuEA4l/cACBKRH3KGXAkOf3g3ClPzAgficmx/n9v4sjAgDhmvxHtIP+YtwpNUWYYHRWxoYlvQgYQiSprIGBdIfghhDsmQ84Mf5pS3ihXAhHvPBqEMA8O/8IE5Z8puwoWeVMgQjF+MPY35e8F6MfvIpovyss85KaZQJ0wz5yQRhPnzTvMKZ787EKO7nfwPX+a78tEyeJ64xUkmbF198cXo/G7rml00ZvJswy/cDfyOOMhGUD3E3P2M9S5v4tWSeyvycL8a4lwOjm3AvmY7PPffcNFcFCEN6QjDwERCUh4gVjHp6HeYlkLJ6gTzDKoqU14QN5TnlR8m4KSuEFd9KuOTHD2UW9RHhkQl4IHznlucyP3APPVSUc/gTPxJ/mdhHVIqUF+ZfC4osIVDoUxFTGVFwY2RheGEQUiFSieZDBUHBPz8DhYoGwx/Di0oUQ52xuvlHNuxpQciMAMiv8HkPxjYrKDFBMTsQDIDhznAMhAqVMN+AQZfN/2AMNa3jiCb8NTcRwnMYBFTuGPuMM2czQ8Ye08JOWFJp0xKJ/zgY9pD/3fiJVvGSraZlgeEoGJ207GMAlnSXb+IbqODxC/7slJsYz1AP4oT4KGkYUcmXFq9ZyzOtr7ROZvfQ2kxLLIbD/MANhgBmhgRpK9/fhA/fgl/zjbu/Eow23kE64TsIB8Ir3x/Ee9bKTgt9NgEag5iw4zffXpZvLo0svZLeEIJnnnlmSq/4hZ4XeulKg3xIzxd5hTkOPEtaJ665VtLwLSsYouQL3otxStxykD7owZuf8ZzlBQxGwhJxhzBiKWd6nRD2kBmR+JNnMghHwpn0zLN8F+FMWcG7S5Y9ZYH45ZvwE+k/S7Mc+InhOXxfRjZskrkGzDmgF4H0iJHN/WWB8ohhU7hDOJI3ge/lffMbtkQ5kA0xZIgVZTL+Ja0hTIn7/LAgfMhTvId8lZ+GOchf9J4A4U4jC0KEoXv0YvAv30g4ZWVpaWS9yJQd2Xwo0hxhnPU2QX6ZTHrIj+PSYAgW30rY5wtvymbKUNLD/IawlYR3Et7kX/IGZR4CDX/zHoSxSHlBESIVBioPjFYKcFrxqfAwLmkFpvU1v1scKOSp/OhRYIgIQy6oNEuCwUSrKAYXrfG0SFHBYPBQMTM0IBsesCBQqWJQ8i9u4QeGUWGMUXkxlIr3ZkfW4s93YvjzPgw+7uU3lTVGIAYERhOGKtfmZgxjDCBWmFxJWPF+/MH7MerwGyIEY4rKmqVSuZ8KnfswupjQyfCvzFhZEPgmjAx6cwjX/DBFSHEevxA+xCvvIF55fxavhHu+IQb4HcOPCjs/XrNwwkCgZwV3MO5oJcXdshjk+IXJ1IQ176e3Cv/ib4YTkc4Yojc/YftnIF5IG8Q1re+kR96dH3bES/5Qnsz455u5l7008OfCCCWMM8KW5wk38g8HRhjXyC/5rb/5YLCRjolL0g/u4GfSFfFQMo+WFQxYeiBwj54Y3M6G+JCOSsvX+VBmkI7JN1lYcmC88z2ISiAfkL44T3gyXCab45UvmLOyh54RWq4J/wWFfI5xjdFNOmdCNn4jnzCfhr/xdwZ+xKAnzWOgEyfkbdJpZoTPD76PuWWUDQztIi3xLHFNbxDfOy+IXxotaMkn7OmxIH7xD3kcP+X7mcYPRB9xT/lC2BHuhB/vxv/5Q+EojxBXiCF6ffAPQ7GIk3nBdYx73k+88E28k2FZ+fmeMCd9ko7xA/MIKZMpY0rL0/TAUIbxneRFvpX4oTeZOCOfIpIWBPxDOuR53MvKZfIGddaCNnaJLEpcoleWCKiIqNQwrBj6QWVUEgxEKhoqTApxCnD+pjLF2KIFnHG2WaWAsY7hQaVBZUMFRUselTnPYdCwYgsGJwU/lRNGJpUXrXw8y9+Ms6fVkMoUf1Fx8jzGO2OYM6g4s5VdaC3Fv1T2tObRuoUbGBZAa+K8ehey1lkMalpd6fXBAMAQxDDG3WyFGc5nz+Qv0YshyKZjLINKazH+yIwmDDrCmd4Vvp/w41szQwgDgedYGpM4oWURA6g0iBPGNeMGQyvyx3jzjVS2uI0BQjjwNwYL7+B+wh0DID9e+ZdKnzBk+AlLWdL6D4Qj35BfgeM3Wl3xC+HD85zHeOCbMJqJF1a1wV8Yk/gZ44XVbrJJ0UDcYKRglPE86Qe/ZkPGMF5occ1aVEuCQfzII48ko5VVg7K0jKFK+BMvGIKIXsD4IN3xPdlKTaRHniNMMDIxurP0yD4G+AEDibgjfriPOCbu8DP+JZz4buKOtIqo5T6eJe1gABO++AfDDbeZp0P64T6GKZEncZfffDtpjGdZArU0IUJaJC4RBjxDHiMuSEuAQU+ck0cxiDnPPcQBxl4GaYXnaIkmDDHOOLK0xDcgxIhr3sm3MeeDYS2l5SvinvlGTARGWBGWxCdxjMBhxT3CHQMawxe3MwHFb/xGfHOeg/BCWOH/rOWfHgoEBb9xl7TJakr530UZhDGOcU4reFbuUKbwXbhLWuC7yE+EJWmNtM934Sfc5hsw/DGyiR+EK24x5BJ/UhYh1hALxBXXgWv0khF+GNKEM26R14hbwolnWKUpe6YkxDtxwfcjkPEzcUW6y/IEq6NRDtAwgL/J9/ibf7O/CQe+gXKVPAfcSx4mrRHXpNETTzzxD72T5M3SlujFLeKGvEJ4ku8Jr6xsIG+RVvhG/EoZjwAhz/Ct+JXv4DermJE/KReIT+IE/+A26YY8id8YFpetFkfc4i/yJeVvlg7J33wr8YN/OY/ZRr1F2FOWZaKG9EPYZeEhsrijCJElAlqiMBopqKm4qZhLQgWSzYvAGKeCocJCeFDwUxFhCFDhAPfhHgIEQxJjFqOG65yjEmP4CoYoFQM9C1TA+a3s3IPBhMGOIUAFzHnez1AwhhRkYAzyDRifCAeMCCpAKkmMr0wMUXkx52VulTzwLCKKipHKkxY3wG8YC7wDY5CW/6xyxvilgqdSpxcCQwGyFWjwN0YC7iGS8APvIYwwlGh5J4wwUDBiCBMMJYwgwi0zMEqDChRBQ+XLv8D9+A+/E460TuIP4glDl+VB8SvhQFzxHGKUypxv4vuo4DEaMFKz1Wm4N2sRJkz5PuKO92CUY7Ag3riOIc/cBp7FTeKFMMXYxFDH8ETIcS6D78aYxY8YEIQH7vE9GAmkN9IQYVcafB9u8+30qmRpmfMYfcQdRijfAcQp6YLvJO1nAhU/Ez6cz9Ij/iaNYiTxL+kRv5CGER2EHcY9hgx+xYhFgHAvxlSW7jPhxTfwm/TJNcICf5MmeBdGGvFGeseoxMglPWTCtSSEMd9HfGRxift8FyIBIUaYkNbwJ+GBH/NFGfAtHOQ5RBTu4l/imHyGu+R98juiBndpMc+GsZUkyyPcR1zyPOGK2xiSfDf3kBYJf+Kd70aEcB/vIQxJJ3wX8cH3s7QtaYWyiTglzRBuPIv/yA/530XexZDlXr6FdMz7SIfkPfIH/sBd4pU0R9iQFkhHpG3ey/uJE/Iw+Yj4oHElmweEKMPApRwg/jPByLPELemKvwkH4p7yk3KBa8Q/+b40kQmkTdICfsEPpBvKGvzMea4TJ+Rn3kHZkjUg8D6+kbRIWJEfeTfhANxPeiBP8+2kG/yV9VQB1+khJp0Rb8xXo4zlfaQNwoayEEGN++Q7/ECYZ3FM3qN8pfwgPfDNpB0EJ/GNWOAe/EP8Ev6EKWUBbtOIw/5MpIssbRG3pGfCjnDP0iH5G4GEH0n7pCHcxa/kacIDCDOWASbfcl2kPFBpdkG3cDOuRBYjqFgorEnOVEhZwV4SrlPJU1HwDIV1VthT2VBxZr+5l3PZvbhJBYnBwHncoULK3sX9GEzZNcB9KkPc5F9+Z25yDvcyeJbzuENlDpmbfBt+AJ7hmFdFk4UHz+Z/U75bhBPfksE5KkjOZf7CrxzZu3kn17PvycjClXt5B8zt3tLIhqPg15L3Zu7mhylhjru4z+/s/XOL1/xv5V7uy74Lt7Iw4hrns3jI3sN9fFcW31zDz9mz/JtP5p+S4ZGlhcwvpTE3tzmP8cW/+eHEb/zL+/jO/PO8u2TYcZ3354cd92ThwTnin/M8x99ZGPAe3CztPaQr7sXdfD/xN/AduMPBO+ZG9l6ez/yDm7yPc9k7OE948G7Cg3MZ2fM8w7WM7DzPZO7iL749393SyA8j/Mh9uF8yPrlOWGTfzj2kG+4vSzjzOz/v5rvNOfJodi9ulBZeXOfvkm7wm/u4HziP/ziPO1m5k72H6zyPm/nkfyNk7vA7S7cln8mnpJ+ztJH5OT99QebvzJ+QH/b578r3G9dwq6Rf+DbcwZ/ZezL/8A7u59ksbXAP7kBJv0MWxtzLtZL+z+Idt4FrWXrL4Br+4pu4lvmZ93Ge37wHP2VxmLmX+Zdn898rsrijCBERERERkaJSenOxiIiIiIhIgVCEiIiIiIhIUVGEiIiIiIhIUVGEiIiIiIhIUXFi+p+E4OMoufqGiIiIiFRctA3njSLkT0DQsUZ6tqyeiU1ERESk4oJtyBLKLJfMfjEsqyylowhZCFgbnIPNh9hFl51L89f7FhEREZGKCXu4sOnklVdemTbGlNJRhCwEXbt2jZdeeil+/vnn6N69e9rhdP/9908bDImIiIhIxYRekPfffz969OgRTz31VNSrVy93RUqiCFkIhg8fHgMGDIjRo0fHrbfeGh06dIhzzz13zo6qIiIiIlLxYEf7xx57LB3PPPNM1K5dO3dFSqII+RNMnjw5zjjjjGjYsGGcf/75Ub169dwVEREREaloTJs2LR599NF4+OGH49lnn41atWrlrkhJnC0jIiIiIiJFRRGyEPTu3TvuuOOOuPzyy6Nbt265syIiIiIiUhYUIQsBXWvLLbdctGjRIurWrZs7KyIiIiIiZUERshC0adMmdt999zj00EPTpHQRERERESk7ihARERERESkqipCFoH///mmDwscffzx+/PHH3FkRERERESkLipCFgJ3S2aiQCeojR47MnRURERERkbKgCFkIVl999Tj55JPjkksuiY022ih3VkREREREyoIiREREREREiooiREREREREiooiZCEYPXp0fPfdd/HVV1/FiBEjcmdFREQWHdNmzIxvBo+NL34ZHWMnTY9ZufMiIosjipCF4IcffoiHH344br755vj6669zZ0VERBYNCI4xE6fG+c/1ik73dYseA0fHrFnKEBFZfFGELATrrLNOnH322XH99ddHx44dc2dFREQWHUiOydNnxsSpM2KGAkREFnMUIQtB1apVo3bt2lG3bt30t4iIiIiIlB1FiIiIiIiIFBVFiIiIiIgsUTAgcfTEaTFw9CQXalhMUYQsBFOmTIlRo0bF8OHDY9KkSbmzIiIiIrI4MH3GzLjrwz5xyD1d4+kvBsSMmTNzV2RxQRGyELA0L5PSzznnnPjkk09yZ0VERERk8WBWDB8/JfqMmBCjJk79vWtEFisUIQvByiuvHJ06dYozzjgjrZQlIiIiIiJlRxGyENSrVy9WWGGF6NChQzRs2DB3VkREREREyoIiREREREREiooiREREREREiooiREREREREiooiREREREREiooiZCHo2bNn3HLLLXHRRRdF165dc2dFRERERKQsKEIWAlbHat26dbRv397VsUREREREFhBFyELQqlWr2HnnnePAAw9MQkRERERERMqOIkRERERERIqKIkRERERERIqKIkRERERERIqKIkRERERERIqKIkRERERERIqKIkRERERERIqKIkRERERERIqKImQhGDNmTPzwww/Ro0ePGDlyZO6siIiIiIiUBUXIQvD999/Hgw8+GDfeeGN89dVXubMiIiIiIlIWFCELwTrrrBNnnXVWXHfddbH55pvnzoqIiIiISFlQhCwEVatWjbp160b9+vWjWrVqubMiIiIiIlIWFCEiIiIiIlJUFCEiIiIiIlJUFCEiIiIiIlJUFCEiIiIiIlJUFCEiIiIiIlJUFCEiIiIiIlJUFCEiIiIiIlJUFCEiIiIiIlJUFCEiIiIiIlJUFCEiIiIiIlJUFCELQe/eveP222+Pyy67LLp165Y7KyIiIiIiZUERshDUqlUrmjZtGi1btoy6devmzoqIiIiISFlQhCwEbdq0id133z0OPfTQ6NChQ+6siIiIiIiUBUWIiIiIiIgUFUWIiIiIiIgUFUWIiIiIiIgUFUWIiIiIiIgUFUWIiIiIiIgUFUWIiIiIiIgUFUWIiIiIiIgUFUWIiIiIiIgUFUWIiIiIiIgUFUWIiIiIiIgUFUWIiIiIiIgUlYKLkFmzZsWUKVNizJgxMXz48Bg2bFiMGDEiJkyYEDNmzMjdJSIiIiIiFYWCipCZM2fG6NGj48MPP4ybb745LrjggjjvvPPiyiuvjKeffjr69OkTU6dOzd0tIiIiIiIVgYKJEHpAECB33XVXXHzxxfH8889H3759Y/DgwfHZZ5/F//3f/8Xll1+e/l5UPSIIIPzIQU/N5MmTk79FRERERKRwFEyEYNB/8skn8frrr8emm24a//nPf+KGG25I/952221xyimnxJAhQ+Lll1+OX375JfdU8Zg+fXr06tUrzj777DjjjDPiwgsvTH7F3yIiIiIiUjgKJkImTpyYRMhqq60WBx10UGy88cax0korRfv27dO5vfbaK3bfffcYOnRofPvtt7mnisdSSy0Vbdq0ieOPPz46d+4cW265Zbz00ktp3grDyEREREREpDAUtCfk559/jg033DBatWoVVapUyV35nXr16qUeksqVK8fAgQNzZ8sOw6YYxkWPBkdpwqHkPfydDbdChDRo0CBWX331JI4aN26chmQ5R0VEREREpLAUTIRg8GPUL7fcclGjRo3c2T/StGnTJAbGjRuXO1M2WG3ryy+/jKuuuioOPfTQ2HPPPeOpp56KsWPH5u74na+//jouueSS2GeffeLggw+Oe+65J/W8ZCBcevfunXpD/v3vf8cGG2wQSy+9dPKTiIiIiIgUhoJZ2/Q4TJs2LapXrx6VKlXKnf0j1apVS0KAXooFAYHDMr+TJk2KZs2apeFczCvhfRnfffddmhT/448/xiabbJKGXr366qvx4IMPpqFigNho3rx5Gi72t7/9bc7SwQ7HEhEREREpHAVt8segZ7L3ww8/nIz/ksfjjz+eRMKCrkiFeFljjTVS7wYHvRcleffdd2PQoEGx7bbbxmGHHRbHHHNMrLrqqmmeSo8ePdI9iKNGjRrF1ltvHVtttVX6zRCyfDGTD2KJYWaIHw7EzIIKKBERERGRik7BREjVqlXTPIvu3bvHiy++mJboLXnQM8EcDITAgsD8EoZ5dejQIfVkIEryoSeDoViIk/XWWy+aNGmSekLWWWeddJ1VsRAP48ePT+/Pem0YPjY3cBMBwz4nCBqOk046Kd57773cHSIiIiIiUhYKJkKY9M0yvBjr9FYw5KnkwXyOM888M7bYYovcU38N9FCMHDky+aFhw4a5s5H+rlWrVpoXQk/G559/nuaCMLeEXhmGdq244opJQJUGzyN86IXhYFJ7ab0wIiIiIiIydwomQjD2t99++zRpvOSxxx57xK677pqW6OU3y/b+ldC7QU8HYiJ/VS5+Mw+Eie38TQ/M8ssvn3pVGKrFssH8XdrEdM5xD0O7WNKX44QTTkhiREREREREyk7BRAjDm9gh/Ztvvkm9DsCwp549e8Ydd9wRl112Wdx+++1zhkb9lTAZHpGBGMmf38HfDKtitS4OejI6deoURxxxROy///5JZJRcSjgfhAhDv7KD97DEsIiIiIiIlJ2CiRAmpTPno2vXrml4FAJk2LBhcf/998eTTz4Z3bp1S8vqPv3003/5juk1a9aMZZZZJs3xGDVqVO5spCFa+IXejj8D4uqFF15Ik+tZhUtERERERMpOwUQIvR9M5EZ80FvAsrpffPFFOnbYYYc4//zzY6eddkpGPJPIFwTcpJdj9OjRSWTQw4G44G/2CqG3g0no/P7vf/+bNkP8/vvvk/DBL392CBXvYuWt/v37L/AeJyIiIiIiFZ2CiRCGWNHzwJwLhj4hDBABLVu2THNFNt544zQ3pHbt2smgXxAQNP369YuHHnoo9awMGTIkiY0HHnggXn755bTfx5ZbbplWxPrggw/izjvvTEPA+vTpEx07dkzDrv4MPH/cccclIbX++uvnzoqIiIiISFkomAjJoNcC6K2gN6J169ZzluStW7du2puDieILAoLmt99+S/NJ6ElZd9110xAs/mbfEXoq2rZtm+Z7rLXWWkmwsBzvbrvtluZ+cK+IiIiIiCwaCiZCmBjO3As2Bvzpp5/ShHTmfqywwgpzls1lOBWCYkFFAZPC6YGgd4M5JdnBHJMLLrggvQOYeH7WWWelHhJ6Qw455JC0d8mfhZ6WL7/8Mg03oxdGRERERETKTsFECMOsNttss/joo4/irrvuihtuuCHq1auXhEGdOnXSPYgTVpz6K4RBMWFX9WeeeSbuvffe6N27d+6siIiIiIiUhYKJEIQGw5+22WabNOcDsXHsscdGu3bt0hAsYBI5e4SstNJK6Xd5gV4YelxuvfXW2GqrrXJnRUREFhGMfJ59VPp9BHRMnjIzps/I/RARWQwpmAhBaLBM7vHHH58mjzMcascdd5zTCwL77LNP2lV95ZVXzp0pHyCoGG7GsDD+FhERWVQw93Ls5KnRZ8SEmDxtRsyc/fuzfqPj8/6jY8jYyTFtxszcnSIiiw8FtaARImzox9AsDgz3rBcEyuuGfyzLy/K8TIJnLxIREZFFAYJj5ISp8XKPwXHVq9/GgNETY8bMWfFI1/5x5lM94q73+8QPQ8cpRERkscNm/IWAXeDvvvvuuPrqq+Pzzz/PnRURESkuE6fOiLe/GRZ3f9g3eg0cG1On/y42Jk2bEYPHTIrHu/0Sj302IH4ZOTGdFxFZXFCELARrrrlmdO7cOS677LK034mIiEixmTkrYsS4KfHcVwPj19mCYzon8pgxa1YSKW98MzS+GjAmpjlHREQWIxQhCwGbLzLfhSWIa9WqlTsrIiJSPOj1+GnY+Phl1MQ5PSAl4SxChSFZI8cv2J5cIiKFpCAihL0/Jk2aFBMmTCjTwUaGIiIiUnaY+zFm4rT5zvegR2Ts5OlpiJaIyOJCQUQIu5O/+OKL8dhjj805Hn300XjkkUfSv9nfHFz79ttvc0+WDxBNTE5n1/apU6fmzoqIiBSPpSpVijo1qkTlpf7/gi+lwYIwtapVjupVytciMCKyZFMQEYKB/vzzzyeR8fDDD6cdy9ms8Prrr4/bb789Teq+6aab0m92Pe/Vq1fuyfLBF198Eddcc02cfvrp8eGHH+bOioiIFI/qVZeKto3rxHL1a0a1yqVX55xtULNqum+ZOtV+PykishhQEBHCfIlzzz03rr322rjyyitjzz33jJYtW8YxxxyThAcC5KqrropNNtkk1lhjjWjdunXuyfIBmysefPDBaY+TtdZaK3dWRESkeNAB0rhejdhtjaaxdO1qUblEhwgVPL0kW63UONZq0SCqVSlIlS8islAUpERi749VV1011l577ejQoUP06dMndt111/j73/8em266adpxfNttt42jjjoqTezu169f7snyQYMGDZIQQUAtvfTSubMiIiLFpU61yvG31ZeLTpu1jjbL1I4qOSXCllx1a1aNPdZuHgdt1DJWWLZ2Oi9SUXFtuMWPgjeLTJ8+PX766aeoV69e1K9ff84O42xU2KRJkxg7dmwMGzYsnRMREZGys9RSlaJJvRqx1zrN4+ydVo7mDWul3o/91msZ1+y9Rpy49Yqx2vL1nA8iFY6ZrNeQUx4jx02NYWOnpM09ZfGh4CKE3dARG6+99lqaSzF58uR0fujQoWny+vDhw6NRo0bpnIiIiCwYTFBfunb1WKNZ/ahdrUr6vXm7pWOLlZaN1kvXjupVFSBSseg7fHzc9VGf6N5vVPr93g/D46IXese9H/WNX0ZOSOdk0VNwEcJwq4MOOij1iDAP5Mgjj4zDDz88jj/++HjppZdiww03dMM/ERGRPwOjsGYfs3LzQurUrOIcEKmQIEDu/6RfPPzfX9IeOjBozKQkRLp80j8e7tpfIbKYUPASqmrVqmkCOqJju+22S70idevWjVVWWSUOOeSQOPDAA6NNmza5u8sHvXv3jttuuy3tmP7ZZ5/lzoqIiIjIooI9cV7uOThe/2ZoDP5tctpLJ4P9dAaMnhiv9Roab307zKFZiwEFFyGsT167du3YbLPN0kT0U089NR0nn3xy7LffftG2bduoUqVK7u7yAd/TrFmzaNWqVZrrIiIiIiKLDjTFkNnC47O+o2PEuNL3cEN2DJp9D8O0ho2b8vtJWWQUpa+WoVhsSPjee++l44MPPoiXX345Hnroobj33nujR48euTvLBywpvNtuu6WeHFb/EhEREZFFx6zZ/w0aPSlGTZgS09Os9NKhR2TE+KlJsMiipeAihB3FP/744zR8ic0LX3311Xj99dfjjTfemHP07ds3d7eIiIiISCGZ9Xu3iCxSCi5CJk2aFE888UQMHjw47Q/CxoX77rvvH46VV145d7eIiIiIyIJRafZ/TRvUjIa1q0WV3HYQpVGl8lKxdJ3qsVz9GrkzsqgouAhhKNYvv/yShi8xJwTRsddee/3haN++fe5uEREREZEFgw06mzaoEeu3bhTL1qmWFowrCeeWr1cj1m3VMBrXq/77SVlkFFyEMOmcORSIEQ4RERERkb+ayrOVyC6rN41tV2kcTWaLDDbuzKAHpHnDmrHDak1iu5WbpP10ZNFSFBHSrl27ePfdd+OVV16JTz75JLp16xbdu3efczBUqzzBDu98w/vvvx8DBw7MnRURERGRRckKjetEp03axAEbtowWjWqlc03r14iObZeJQzZuFYds2CpaLVM7nZdFS8FFyIwZM6J///5pBax///vfaW+Na6655g9H165dc3eXD/r165d2e3/44Yfju+++y50VERERkUUNQuS4jiumoVmw5UrLxqV7rBZHbb5CtFSALDYUpSeEjQmzSejsF7L22mvHWmutNedgA8PyBBPsL7zwwrj11ltj6623zp0VERERkcWBNDc9N+JqmbrV0xwQh2AtXhRchNSqVSsOPfTQOPPMM9Nxxhln/M+xwQYb5O4uH7ABY+XKlZPA4m8RERERWXzRWlv8KLgIAYz1KVOmxNChQ9PQLPYF6dOnz5xjzJgxuTtFRERERGRJp+AiZObMmTFy5Mi0Q/r1118fnTt3jlNPPTUdxx13XPrNLuoiIiIiIlIxKLgIoQfkhRdeiC5dusS0adNST0idOnWiZcuWaTf1mjVrRoMGDXJ3i4iIiIjIkk7BRcjkyZPTUrYdO3aME044IZo3bx5bbLFFnHvuuXHSSSdFixYtklAREREREZGKQVGGYw0fPjztit6sWbOoW7dumtRdv3792Hjjjef0joiIiIiISMWg4CKE1aPq1auXdktHkLAc74ABA9KBOBk7dmzaS6Q8wTCy3377LUaPHm0vjoiIiIjIAlJwEVK1atVYddVVY9CgQTFx4sTYfPPN48svv0ybFl5yySUxfvz4aN26de7u8gH+v/baa9OSwx999FHurIiIiIiIlIWCixD2CTniiCNi7733jkaNGsXf/va3tG8IwoNNDI8++ujYdNNNc3eXDzp06JC+4R//+EfaeFFERERERMpOwUUI8z+YC8KE9Bo1aqSVsHbaaac4+eST07HVVltFw4YNc3eXD5jP0q5du9TDg7ASEREREZGyU3ARkpG/szhGPKticbBcr4iIiIiIVByKJkJERERERERAESIiIiIiIkVFESIiIiIiIkVFESIiIiIiIkWl4CJk1qxZaUPCV199Na677ro477zz4uyzz/7D8f777+fuFhERERGRJZ2CixB2FEeA3H///fHJJ59Enz59on///n842H1cREREREQqBgUXIZMmTYoXXnghll566ejUqVP885//jPPPP/8PxyabbJK7W0RERERElnSKMhxrwoQJaVNCjrXWWitt8pd/LLPMMrm7RURERERkSafgIqRq1aqxzjrrxJAhQ2L48OExY8aM3BUREREREamIFFyEVK5cOfV0vPTSS/HAAw/EM888k4Zn5R8//fRT7u7yAYLq008/jbfeeisGDBiQOysiIiIiImWh4CJk6tSp0bVr1xgxYkQ8++yzcc0118SVV14ZV1111ZwDg7488euvv8abb76ZBFV5E1AiIiIiIouaSrOYtFFAECHdu3dPy/TOjfbt28cKK6yQ+1U+INgmT54cZ555ZjRs2DBNsK9evXruqoiISPGgIh8+bnIcfn/3+HHIuLj78HVj87bLxlKVKv1+g0gFY9qMGXHuc73jyW4D4uRt2kbnrdtFlcoFb3uPadOmxaOPPhoPP/xwanyvVatW7oqUpOCxUa1atdhoo41iu+22m3Nss802fzhatWqVu7v8UGl2wc4hIiIiIiILRuEl4WzoNWBS+nfffZd6RRiexRCs7Bg0aFDuThERERERWdIpuAhhNax+/frFHXfcEWeddVbst99+cdRRR8WJJ54Yhx56aPqbCd4iIiIiIlIxKLgIYbPCxx9/PHr06BE77LBDWimLfxEf6667bmy22Wax8sor5+4WEREREZElnYKLECamf/3112kuyJ577hlNmjRJooMekRNOOCHq1KmTVpsSEREREZGKQcFFCPNBxo8fH02bNo0GDRpEvXr1kjBh/5C2bdumnhLnhIiIiIiIVBwKLkKWWmqp1PsxYcKEtGxZ69at49tvv41vvvkm9ZCMHDnSpW1FRERERCoQBRchCIzNN9889X5w7LjjjjF06NA4++yz4+KLL466devG6quvnrtbRERERESWdAouQmrUqBG777577LzzzrH00kvHeuutlwTIMcccE507d45//OMfsdZaa+XuFhERERGRJZ2iDMdq1KhROmbOnJkOej723nvv2G233aJDhw5JqIiIiIiISMWg4CIEmHz+0ksvxUknnRR77LFHvP3221G1atW0bO8LL7wQffr0yd0pIiIiIiJLOgUXIVOmTInXXnstHnrooahZs2YMGDAghg0blnpEKlWqlHZP79WrV+5uERERERFZ0im4CJk8eXK8+eabseqqq6Yd0ps3b56GaEGzZs1i3LhxLtErIiIiIlKBKLgImT59evTv3z/NA2nfvn3qDcngb3pEECoiIiIiIlIxKLgIYchV7dq147fffktL9ObTr1+/NFyLZXpFRERERKRiUHARwj4hm266abz33nvx8ssvp80J+/btG6+88krcd999qTeEoVrFho0T2TTxpptuiquvvjpuv/326NmzZ+q5ERERERGRwlFwEcLyuzvttFMaivXxxx/HqFGj4vXXX48uXbrExIkTY9ttt41VVlkld3fxmDFjRno/ooOeGPz11FNPpR6bWbNm5e4SEREREZG/moKLkMqVK8eKK64YnTp1iu233z6OOuqotGv6NttskzYs3GGHHaJBgwa5u4tHlSpVYoUVVkiT5Y899tjkt++++y5Gjx6tCBERERERKSAFFyHAalishLXPPvvEmWeeGRdeeGGceuqp0bFjx6hfv37urrJD7wVL/dKjcv/996ehVF988cX/THD/9ddf0xCwO++8Mw39oidm7Nix6RoipGHDhmkXdybHM1+FoWOcFxERERGRwlEwETJhwoQ07+Pxxx+f78HcjAWB+Rz0WrAB4nPPPReXXnppvPPOO+mdGexFwvAqhn299dZbaVPEe+65J93H8xkIkMGDB8cnn3ySdm9nZ/dsCWEREREREfnrKZi1zRyLyy67LM4555w0+fvee+9NvRalHUwIXxAQCU2aNElDqBjSxd8l+eijj5L4QFhccMEFqecFwYEwYcngDCbKs4P7kCFDYs8994xatWrlrvwvPE8vTHYgZjgnIiIiIiJlp2AihGFNTZs2TfM9EAlrrbVW7LLLLmlOyAknnPCHY5111sk9VTYYNrXGGmvErrvuGhtuuGFaAjgf5nQw9IrhVkyKX2211WKLLbZIk+CZ89GtW7d0H5PQ33///TSUa++99462bdvOdTgWbrKkMEPAnn766XTQC9OnT5/cHSIiIiIiUhYKJkIQAPQ+7L777qnXgPkZY8aMSatlMSGcZXuZoI6QwPj/K2HvkYEDB6b5Ho0bN86djVhuueXSHBTmk9CL8dVXX8UDDzyQ/EqPxjfffJPmjJQ2MZ3r33//fTz88MNx2223peOuu+6KXr165e4QEREREZGyUDARgtjYbLPN4rzzzos77rgj9TQMGjQobr311rj22mvjkUceST0LhRjOxNK7CBH2IMEfGfzNal3jx4+PSZMmpXkj2SR3Jq4zPwU/snxvSXiOFb2Y5M78Eg6GdtHTIiIiIiIiZaegM7DZLZ3hTQzHYijWv/71rzSHA5Fw4403pnkbiIC/GgQD80YQE/kih9/0cnCdvUGYA/LMM8+kXo2bb745rdrFfiZzG5JVrVq1qFOnTnKTOSTMLRk3blzuqoiIiIiIlIWCihAMfgQHvQu9e/eOV199NR0jRoyIjTfeOFZaaaWCLInLHJF69eolgZAvEvibpXgZppUJpKy3hIO5JmVZGYthWQ8++GDccMMNaUiXiIiIiIiUnYKJEHo4fv7557RCFT0NF110UbzxxhtJeFxzzTVx3XXXxXrrrbfQy+HSG8GQK/YG4W/ex9+IDNzkPazQhWBg6V4mpP/www/pHno7/gxrr7122u+EYWUMORMRERERkbJTMBFCbwfL855//vlJjGTL6W655ZZpGVxEAcOZfvrpp/T3goDoGD58eFoB68MPP0wT3nGH4V30TNDjsdVWW6WeDjYr5HjsscfSdZbsXXfddXMuLRwMy6KnhZW/6D0REREREZGyU9CekKFDhyZBwApSDz30UFx88cVx+umnx4knnhjHHntsEiUcDNFaEFjZ6scff0zzOBgSxVyP7t27p78fffTR9F6WBD7kkEOSELn77rvTxoacO+yww9JqWH8GJrXzDlbgyt8gUURERERE5k+lWaWtR/sXgPhgBSn24mD+xbzYaKON0hCnspLNNaE3JH/3c95DLwtzPuihQCzQS8K/DNFiUjlL9FatWjX3xMLRtWvXJGr69u0bn3/+eeyzzz6px8deERERWRRQkQ8fNzkOv797/DhkXNx9+LqxedtlY6n51L8iSyrTZsyIc5/rHU92GxAnb9M2Om/dLqpULljb+xywS2kQZ0uHZ599dp6bYFd0CiZCGDJFL0Fpy92WhMnh5cmAZ4lfhpAhtK666qpo1aqVIkRERBYZihCRP6IIWfwpWGzQ88AyuMybmN9R3ox3elRatGiRNl1kboiIiIiIiJSdwkvCJRB6d1hli2FehdjnRERERERkSUYRshAwCf7yyy+Pk08+Od5///3cWRERERERKQuKkIWgXbt2sd9++8Vxxx0Xq6++eu6siIiIiIiUhaKKEIYxDRs2LE1YL9B8+KLQqFGjWG211dJmi40bN86dFRERERGRslBwEYLYYDWpJ554IvUcHHnkkWnTQOZUsNEgmwiyk7mIiIiIiFQMCi5CpkyZEm+88UY8//zzUaNGjfj+++/TJn8s4UvPyKeffpo2MxQRERERkYpBUUTIm2++GSuuuGJ06tQp7anB8r3A36wwNXjw4PS7vPDNN9/EnXfeGVdccUWapC4iIiIiImWn4CKEJWwHDBgQa665ZhIi+XuC8De9IVOnTs2dKR+wuSJzQZZffvmoXbt27qyIiIiIiJSFgouQSpUqJUOdHcZLio0+ffqkc2xqWJ5o06ZN7LHHHnH44YfHyiuvnDsrIiIiIiJloeAihN6OTTfdND755JN45ZVXYuTIkfHTTz/Fq6++mra0R6CsssoqubtFRERERGRJp+AihMnoO+20UzRr1iytijVx4sQkSB566KEYM2ZMbL311mm5WxERERERqRgUXIRUrlw5zQU55ZRTkhg54IADYpNNNomOHTvOOVevXr3c3SIiIiIisqRTcBGS7RNSrVq12HXXXePss8+O0047LbbZZpvUS8J+IeVt48IhQ4ak3py33norTboXEREREZGyU3ARwsRzhmF9/fXXaTleluxlbsiNN94Y1113XZobMmLEiNzd5YNff/013n777Xj22Wfj559/zp0VEREREZGyUHARwhyQRx55JE1GnzZtWvTt2zcef/zxtHQvvSMvvvhi/Pe//83dXT5Yb7314vzzz49bbrklttxyy9xZEREREREpCwUXIeyMTk/HMsssk1bKYhgTfx911FFxzjnnpPkg/fv3z91dfmDpYRERERERWXAKLkIw1unxGDVqVAwfPjy6deuWdkpntSz2B+E6PSQiIiIiIlIxKLgIqVq1atoH5N13340HHnggevXqFe3atUs7jg8dOjRNSi9vmxWKiIiIiMjCU3ARUrNmzdh3333TsKtPP/00bVy4wQYbpE0KBw8eHE2aNInWrVvn7hYRERERkSWdgouQKlWqpM0IL7roorjvvvvin//8Z7Rp0yYNw0KQdO7cOe0bUp5gsj0CiuV5WX5YRERERETKTkFECCtfDRs2LC3PO2PGjDQfBMOd8xjtmQHPjuks2cv58kTPnj3j1ltvjYsvvji6du2aOysiIiIiImWhICKEuR5XXnll9OnTJ3777be48MILo1OnTnHEEUeUerBvSHmCnp3jjjsuLdPL0DIRERERESk7BREhzPdgiFWDBg3SsrybbbZZ7LLLLrHzzjuXeqy44oq5J8sHfB+rezGXxUn1IiIiIiILRkFECIb5tttum1bGYjjWdtttFwcccEAcfPDBccghh/zPQc+CiIiIiIhUDAoiQipXrpzmg5x55plx1llnxZNPPhnff/992riQXgRWyqKXpFGjRrH00kunFbRERERERKRiUBARAgzDooeDCelPPfVUnH766bH//vun1bDuuOOO+Pjjj2PkyJFpUjp7hYiIiIiISMWgYCKEIVkHHXRQnHPOOXHFFVfEGWecEVtssUVaDeu5555LPSQM0TrppJPiww8/zD0lIiIiIiJLOgUTIQzJYiPClVdeOTbeeOPYbbfd4uijj05iBOHBuYEDB6Zekh49euSeEhERERGRJZ2CiZAM5oGMHj067a3x1ltvxSOPPBLPPPNMDBo0KNZaa63UW8K/IiIiIiJSMSiYCGFTQiaks1P6ueeeG126dIlevXqlSej0guy3335x4oknximnnKIIERERERGpQBRMhIwdOzbuu+++ePzxx9MO6S1btowdd9wxLcnLxoV77rlnbLrppmmPkDp16uSeKh98++23cc8998Q111wTn3/+ee6siIiIiIiUhYKJEHo8EBlsVIgAYfjVe++9F2+88UZ88MEH8cMPP8SECRNyd5cvqlWrFvXr109LDNeoUSN3VkREREREykLBRAhG+jHHHBMnnHBCbLnlltGiRYu0XO8333wTr732Wtx9991x/fXXpx6F7777LvdU+YDem3322SeOOuqoWHXVVXNnRURERESkLBRMhCy11FKx7LLLxrrrrht77713nHbaaXH22WenuSDNmjWLH3/8MQmRSy+9ND766KPcUyIiIiIisqRTMBECbEI4adKk6N+/f3z22WdpP5Avv/wyzRFhH5H27duno2HDhrknRERERERkSadgIgTx8c4778SDDz4Yt956a9xyyy1x1113xbPPPhu//PJLNG3aNPWKXHjhhWm4loiIiIiIVAwKJkJYHev++++Phx56KM35WHrppdOKWBdffHHcfvvtcfXVV8eRRx6ZJq9zTUREREREKgYFEyG1a9dOk7dZxvaBBx6I6667LomOxo0bp2FabGIoIiIiIiIVj4KJEPb+2G233WLDDTeMBg0apInqCA+GZX3yyScxderU3J0iIiIiIlKRKOjE9EqVKqUjgx6Qn376KUaNGmVPiIiIiIhIBaWgIqQ0qlSp8gdhIiIiIiIiFYuiiJDp06enXhDEB5v7LbfcclG5cuV0bcaMGekQEREREZGKQcFFyLRp09Iu6b/99luaF3LmmWdGx44do3r16mlIVp8+fdK+ISIiIiIiUjEouAgZN25c2hX966+/Tj0e9evXjxo1aqRekYkTJ6Zd01944YXc3eUD/D106NAYOHBgTJgwIXdWRERERETKQsFECL0cCJAxY8bEkCFD0mR0/qZHhCM7P2zYsJgyZUruqfJBz5494+abb04bLf73v//NnRURERERkbJQMBGCAGGjQno66DF4/vnn087pGO8cN910U1x77bVJhDBHpDzBvJZjjz02zj333Fh//fVzZ0VEREREpCwUTISwD8j333+f5oPwd//+/aNXr17Ro0ePdHCeCet77LFH2jW9PMEeKM2bN48VVlgh6tWrlzsrIiIiIiJloWAihA0KO3fuHBdccEEccMABcfrpp8dFF10Ul1xySTouvvji1JOw9957R7NmzXJPiYiIiIjIkk7BREjVqlWjTZs2seaaayYxssUWW0S7du1S7wEH11q0aBF169bNPSEiIiIiIhWBgomQDJblpVfkzTffjPPOOy+OOuqoOOyww/5wvPTSS7m7RURERERkSafgImTSpElpgvpdd92VJqgjSJo0afKHgzkWIiIiIiJSMSi4CGH53XfffTfWXnvtOO644+KEE074n2OdddbJ3S0iIiIiIks6BRchs2bNSqtjITQ4VlpppTQ3JP9o2LBh7m4REREREVnSKbgIqVatWmyyySbx888/x4gRI9ImhiIiIiIiUnEpuAiB8ePHp8nnl19+eVx99dVx/fXX/+Ho1q1b7k4REREREVnSKcpwLOaFsKnfL7/8Et27d4/PPvssCY/sGDx4cO5uERERERFZ0im4CKlevXrsueeeceqpp6YNC5mcfsQRR0SnTp3mHGussUbubhERERERWdIpypyQDTfcMDp27BgrrrhiWqKXDQy32Wab2GijjWKDDTZwx3QRERERkQpEUYZjjRw5Ms0Jufvuu+Paa6+Nr776Kq2Y9eOPP8Z7770X/fv3z90tIiIiIiJLOgUXIYiN999/P7p06ZI2K2QOyK+//hozZsyIMWPGxOuvvx5ffvll7m4REREREVnSKbgIYcf0F198MdZff/247LLLYpVVVomllvr9tQzPmj59egwZMiT9LjZjx46Nrl27ps0Uv/322+QXEREREREpLAUXIfR4DBs2LFZbbbWoX79+7uzvMF+EfUOmTZuWO1NcBg0aFHfccUdccsklce+99ybBJCIiIiIihaXgIoReD5bnpbcDI585IoDw+P7779NwLSarLwqWX375OProo+PQQw9NgkhERERERApPwUUIS/RuuummadjThx9+GL/99luaE/LJJ5/EE088ETVr1oyVV145d3fZoPeEoVR9+vSJHj16pDkliJySw6nGjRsXP/30U7rOfbyXPUsy6tatGyuttFLUrl07KlWqlDsrIiIiIiKFpOAipEaNGrH33ntHmzZt0pAnVsp6/vnn49JLL02bFO6yyy6x9tpr5+4uG/SefPHFF2m39TPOOCP23XffeOqpp5IwyZg4cWK88cYbaR4K+5Nw3HjjjUmMMEQMEB6VK1dWgIiIiIiIFJGiDMdq0qRJdO7cOS688MI477zz0gaFiIKrr746tttuuyRUFgSGdFWtWjXNM9lvv/3S85MnT54z1AvYlf3RRx+NOnXqxD//+c847LDDUs/JAw88ECNGjMjdtWDgPr0w+Uf+O0VEREREZP4URIRgnI8fPz71OGCkT5gwIf27wgorxNZbbx277bZbGqK19NJLJ/GQP0SqLCA61l133TjwwANjhx12SHNO8uFdLAtcpUqV2HXXXWPLLbdMu7ZvtdVW0a9fv7RM8IKCm6NHj44ffvghevbsmY5evXrFqFGjcneIiIiIiEhZKIgIYVgU+38w9IrJ6GxUyD4h9EwwbOqZZ56JJ598Mh5++OF0HmN+QWD4FEKEOR3MKcmW/M1gbsjPP/+cRA7DwJiXwrwPRBD/Mk8EGNbFyl34Ez/zd8kelQyE1aeffhoXXXRRnHTSSen4xz/+kcSOiIiIiIiUnYKIEHo+MNjpOcCo/+ijj+KVV14p9Xj11VeTYPgr4f0cDMXiyECAMIyLTRKBXhHmlSCImDjPbu7fffddqfuFIHQ22mijuOCCC+Kmm25Kx3XXXRcdO3bM3SEiIiIiImWhICJk2WWXTXNAWrVqlYZKnXLKKcnYv+GGG9Lk8Ozg97///e/YYostck/+NdCTwVFywjm/ObKejhYtWqSJ7bfcckvcf//9ceaZZ0a7du3SMK6S8FyjRo2iQ4cOscYaa6Rj9dVXT70tIiIiIiJSdgoiQthzAwOfIVPsB9K7d+/UC4GB3759+zkHw6MYAsXSuX8lvIthWqyQlb8BIX/Ty5HNIeEe/ICwYJngbLhWSfGSwXl6RBiaRQ9P5p6IiIiIiJSdgoiQfDDUmQvSt2/fOUvjZjAng7kjrGS1MJRcoSr7myFXLVu2TJPGBw4cmM4jFhA77B1CD82f4fPPP48rr7wyTj311Pjggw9yZ0VEREREpCwUVIQgOhAaw4cPT2KE34iB7EAgsMnggq6OhdBg9S2EDfNJcJt38He2ISFzNdgY8cUXX4zu3bsnscO+IQwV23DDDXMuLRz04rAy14knnpiGZYmIiIiISNkpmAhhmNXJJ58cRxxxRBqOxeaE7Onx97//PR1sYHjUUUclEbKgPRMIG3ZBZ3UqhMCPP/4Yjz32WFqxijkm/fv3T0sA77XXXmnyOXM9ON+wYcM49NBDo2nTpjmXFg7cYfgWmywiakREREREpOwUTIQwJKp169ZpngVzL5Zffvlo27btnIN5GNtvv30SKptttlnuqbLBxHHml/AsGyA+9NBDabUqVq464IADYrnllkvzPtgj5Kyzzoqzzz47bZLI/fSClDbxXEREREREikOlWdmEir8YhlvRy8EcjHfffTcNW6IHItvTg0neTFyvX79+Einlia+//jrefvvt+OWXX9I+Ibvsskucf/75aT8SERGRYkNFPnzc5Dj8/u7x45Bxcffh68bmbZeNpeay0IrIks60GTPi3Od6x5PdBsTJ27SNzlu3iyqVCz4VOi3IxFxo9sJ79tlno1atWrkrUpKCxQa9Dc2bN4+VVlop9t9//1h//fVjxRVXTBPG6RWht6JBgwZJjCBYyhMsy4uooleF7xARERERkbJTcEmIyKCng1Wkrrjiijj99NPjtNNO+8Pxzjvv5O4uHyCutt1229hzzz2TsBIRERERkbJTcBHCJPL33nsvzdv49ttvU9dUz54901CmN998M7766qu0upWIiIiIiFQMCi5C2NTv5ZdfThPFDznkkGjTpk3stNNOqUeElarWXXfdNCyrPMFSwE899VTcfffdaeUvEREREREpOwUXIcz3YMnczTffPDbYYIO0vC1zKtZZZ53YZ5990kaCGPXlCXp3xo4dG2PGjFngPU5ERERERCo6BRchULly5TRRnZWxGjVqlFbNYiNBfvMvK2iVJ9gjhP1PzjjjjCSmRERERESk7BRchLBfCHuCIDboNWCDv169eqXly7p06ZJ2PneFKRERERGRikPBRQh7gey4445JaNDzwXyQFi1axOuvvx6ffPJJrLfeemleiIiIiIiIVAwKKkKYDzJs2LA0KZ15IMOHD48mTZqk3cuvv/76uPnmm9Mu5uygXp4YMWJEWtXr008/TUPLRERERESk7BRMhCBAmHB+2223xTnnnBNnnnlmXHzxxWm5XuaIsNnfKqusknZML2/wXU8//XTcc889ro4lIiIiIrKAFEyEMNmceR/vvvtu2iGdCdz0itx6663xww8/pE0MOcoj7P7+r3/9K2655ZbYcsstc2dFRERERKQsFEyETJw4Mb7++uvYf//947LLLotLL700rrzyyrSs7aBBg9LSvOUV5rZUq1Ytqlevnnp1RERERESk7BRMhMyYMSPtpbHqqqvGMsssE3Xq1ElDsPg3WylLREREREQqHgUTIbNmzYpp06alYVmDBw+OgQMHpuFYzBVhYvevv/6aznGUt31CRERERERk4SmYCGHIEr0hDz30UFxxxRVpSNbll1+eRMerr74aV199dTrHwVK95QmGmg0dOjQJKfY5ERERERGRslMwEVKrVq3YZptt0qR0/ma/EP7daquton379lG3bt10joPd1MsTPXv2TMsLX3TRRdG1a9fcWRERERERKQuVZjFuqgDQCzJy5Mj07/xAkDBXpLxA7wcT7BlGxmT7Vq1axfnnn58mqouIiBQbKvLh4ybH4fd3jx+HjIu7D183Nm+7bCxVTlehFPmzTJttf577XO94stuAOHmbttF563ZRpXLB2t7nwFQEVod9+OGH49lnn00N8FI6BYsNVo1q3LhxNG3adL5HeRIggH+bN28ebdq0SRsxioiIiIhI2Sm8JBQREREREclDESIiIiIiIkVFESIiIiIiIkVFESIiIiIiIkVFEbIQfPnll3HNNdfE6aefHh9++GHurIiIiIiIlAVFyELAql8bbLBB2vOkRYsWubMiIiIiIlIWFCELQbNmzWLLLbeMXXbZJVq3bp07KyIiIiIiZUERIiIiIiIiRUURIiIiIiIiRUURIiIiIiIiRUURIiIiIiIiRUURIiIiIiIiRUURIiIiIiIiRUURshAMHz48unfvHh988EEMGjQod1ZERERERMqCImQh6Nu3bzz//PPRpUuX+Pbbb3NnRURERESkLChCFoL11lsvLrzwwrj99tvTrukiIiIiIlJ2FCELwVJLLRVVqlRJB3+LiIiIiEjZ0YIWEREREZGioggREREREZGioggREREREZGioggREREREZGioggREREREZGioggREREREZGioggREREREZGioggREREREZGioggREREREZGioggREREREZGioghZCD7//PO44oor4pRTTon3338/d1ZERERERMqCImQhWH755aNjx46x8847R5s2bXJnRURERESkLChCFoKmTZvGZpttFjvssEO0bNkyd7bwzJg1K/7bZ1T886kecc+HfWP6zJm5KyIVj1mz88MvIyfGxS/2jmte+y6Gj5sSs3LXREREZPFGEVKemG10/Tx8XDzefUC899PwmDlTk0sqLqT+EROmxHNfDYqXew2JsZOnpTwiIiIiiz+KEBERERERKSqKEBERERERKSqKEBERERERKSqKEBERERERKSqKEBERERERKSqKEBERERERKSqKEBERERERKSqKEBERERERKSqKEBERERERKSqKEBERERERKSqKEBERERERKSqKEBERERERKSqKkHLErFm5P2Yza+asmDJ9VuSdEqmYkAlmZ45p02fG7GwhIiIi5YAKLUJmzpwZ48aNiyFDhsSwYcNi4sSJs22ZxdOKmT7buvpt0rTZx/T0e/SEqfHlL6Nj+NjJs8XIjHROpKIwc3Y+HT9leowcPzX9PWnqjPj6199i4OhJMWH234trPhYREZHfqdAiZOTIkfHUU0/FWWedFRdccEG88sorSYgsbsyYLUD6DB8f933cNx7v9ks699Ow8XHR873johe/iU9/GpmMMM0uqQggOkaMmxLPfzkwbnrnx9miY3qMmi3Kb3jrxzj32Z7xSo9BMWriVIWIiIjIYkyFFSH0gvz888/x0UcfxdFHHx0777xzvPPOOzF06NCYMWPx6lnoP3JCPNr1l3ik64AYMHpSOjdl+szoO2pivP/9sLj1vZ/isz4jY9qMmemayJLMmInT4uWeg+OO9/vEt4PHxvQZs1JP4aDfJkX3fqNmn/853uw9NMZN/r3XUERERBY/yq0IQShMnjw5JkyYEOPHj4+pU/+35ZN7Jk2alK5z35QpU5L4AIZhDRgwIJZeeulYZ511YrXVVotGjRrFDz/8kNxaXKAX5NOfR8Yb3wxNrbsz8wa9870MPflm0Lh46suBMW7SNHtDZImG5I8of6L7gNmiY/Js4f3HFD95tjj/ZbY4f/LzX2PQmEmz80jugoiIiCxWlEsRgpj44osv4qqrropOnTrFnnvumYZVjR07NnfH7z0dn3/+eVx66aVxwAEHxGGHHRZ33XVXDBw4MF1HnHB/48aNo1q1alGzZs1YZpll0tyQ6dMXnxbUoeOmpNbeIWMn5878LxOmzYgfhoyLPiMmxHR7Q2QJZvzkaSk/9B0xMQ3LKo2ps4VJn+ET4ruh42LiVHtDREREFkfKpQihh2PMmDHp7/bt20f//v1j0KBBfxAP3377bdx5553p2g477BCrr756vPHGG/HAAw+kXhFECkeVKlXS/ZUqVYrKlSsvVgIExk6cFqNnH/SIzA16RDC2hs8WLGoQWZKZPH1WDBs7db5DD1msYfjYKf/TUyIiIiKLB+VShFSvXj3WXnvt1Ltx4IEHpmFUJXn77bdj9OjRseOOO6aekCOPPDLWW2+96NatW3z55Zdzej+y3hPEB5PS69SpE0stVXqwcA89KNyXHYUWLVWrLBVVK88/mhBRNapUnv1v7oTIEkjl2Qm8etWyFVvVq5IfzBAiIiKLI+VShNBjwdCpNm3aRJMmTaJq1aq5K79DT0nPnj2TOFlrrbXSvI/mzZvHGmuskXo+evfuHfXq1Ytll102+vXrl8TKqFGjok+fPtG2bdskUEpCr8l7770XnTt3jv333z8dhxxySLz++uu5OwrDcvWqR8tGtaIWBlXuXEmqzhZNy9atHm2WrT1bsGh0yZJL3RqVo23jOrP/rTrXwguh0qBmtWi7bJ2oVa1y7qyIiIgsTpRLETI/6KFguFaDBg2ifv36ubORfteoUSOGDx+ehMaKK64Yyy+/fFxyySVx9913J1HTqlWrOUO08qFFtUWLFrHNNtvErrvumg5W1OKZQlKrepXYoE3DWKtFgyRCSkoMIrBR7aqx/SpNovFswbKULb+yBFOtylLRvkmd2KZD46iyVKX/KcD4XWP2Pduu3CRaL1tLUS4iIrKYskSKkGnTpqVhUoiJfEHB3wy1yla/atasWey3336x+eabx1ZbbRV77713Ei2lDeHgXLt27WKvvfaKww8/PB0HH3xwdOjQIXdHYcAnazRvEAds2DI2XnHpPwxFqTL7W1otUzv2Xb9F7LjaclGziq2+suSzXL0asf8Gs9P86stFvVpV5wxBRIAvXbd67LLm8rHPes1imdrVf78gIiIiix1LpAiht4OeDlbRyl9ul78ZVsVcEOBfJqwjRPbYY48kMkrrBclAwDD0i/1FHnroobjpppvi66+/zl0tHPVqVo0t2i8bx2/VNnZYdbl0bvkGNePwTVrHP7ZtF/vNFiHNG9Wa7T9bfWXJh7keazSrH0d1XDEOnC3Oa87+XbdGldhr7WZx6jbt4ojNWkeH5eqlXhMRERFZPFliRQjzPRiSxa7oGSNGjEgrYzVt2jR3ZuFAqDCBvW7duv8zH6VQIEQ2bNMo1m/9+yT8Fg1ni5BNW6dW3+YNZwsQh2FJBQIhskrTemlYVvUqlaP+7Pzx9/VapGMlBYiIiMhiT7msqVmSll4ORAXzO+jhYENC/maSORPTWQmLyebsiM4yvUxU//TTT1MPCZPV/wxMXv/73/8exxxzTNrksFjQ0ZFpjWrVKkfjutUUH1JhIemnoZOz/69cealYZnZ+cA6IiIhI+aBcihDmezAkisnkt912W9oj5IMPPojbb789nnnmmbTh4JZbbhmrrLJKEh4Mm7r11ltj8ODBse222xZ8HoeIiIiIiMydcjtmgd4PhlrRA7L99tunVarGjRuXhmDRE9K6deu0hO6mm26aek1q166dJp4zsZzhWn+GX3/9Ne1D8txzz6VlfUVEREREpOyUSxHCPAyGVP373/+Oe+655w/H6aefHi1btkz3rbzyynHSSSelnpBrr702DaFif5E/C8PAvvrqq9TLQu+KiIiIiIiUHWdvLgQIIMTO1VdfnXpaRERERESk7ChCRERERESkqFSaxVJTskCwAteQIUPit99+i+uvvz6tlnXuuef+6bkm82P6jFnxZPdf4rznekfH9svEHQevm5YqFamIzJxddH39y5g4qsvnUa9mlbjnsPWizTJ15qwgJ1KRoCIfPnZyHPlA9/hh6Pi4+9B1Y5O2y0Rl94+SCsrU6TPjgud7xRPdf42Tt24bJ80+qlYufNs7G2Y/+uij8dhjj6XFkpiTLKWjCFkIunbtGi+99FJaoevzzz+PDTfcMO2ezvK/hWT6zFnx7vdD4+4P+8VazevH6duv5H4IUmFBhPw4bHz8+7Xvo071KnHG31aKZvVr/L5sr0gFg4p89ISps/PDd/HL6Elx5t/axxrNGriMu1RYps6YGfd+1He23TQ89l6nWey5drOiiZB33nkn2YdPPfVU1KtXL3dFSqIIWQhYIpgVt+gJueWWW+L111+fswt7oZk6fUYMGTEqxo/9LTq0XSHt4i5SUZkxc2aMGjshBg8eFO3atIqaBe6NFFmcQZiPnzQ1+vTrF62bNY369eoqyqVCM2nq9Pjl14FRs3q1aLH8ckXLD6zguvrqq6cFlBo2bJg7KyVRhPwJZs42gIYOHZqWCWbFrmIkbhT2Cy+8EM8//3zaF6VWrVq5KyIVD5bjZiPSyy+/PK644opYccUVFeZSYaE6Z+n6448/Pk444YTYfPPNo0qVKrmrIhWPyZMnp7qhfv36abXU6tWr564UDvIhjdXYhc2bN4/KlR02PzcUIX8ShEhGsUQIYw0feeSRePrpp5MIsaVLKiqIELq8zzjjjCTK2YhUESIVFapzNutlOfpzzjkntttuO0WIVGgmTZoUZ511VjRo0CDOO++8gs/dhXyz2vpo3hg6fxISWHYgBop15L+7tOseHhXhyNI/lLzm4VERD/JElh+sHzwq+rEo8gPvyQ6ZN4ZQOYSWLYdhifwOXd3kB7u8RX43tsgP9oCI/A69H8UYhiULTuWLZpP7W8oJjDWsW7durL322hpeUuFhSBaG1zrrrBN16rBEr8MTpWJC2mcoCAunUD8svfTS5gep0GT5oVWrVs4ZXAxxTkg5hDGOTLZijKMVjFR0mCc1bty4tAyirb9S0WGe4pgxY9LeBLb+SkUHE5f6AfFBI5UsXihCRERERESkqNgvJSIiIiIiRUURIiIiIiIiRcWJ6YsQ5nW8+uqrac+P1q1bz3dXzR9++CEefPDB+Oabb9KkQxERkYrCU089lTbrZT5k48aNc2elLAwfPjwef/zxePvtt2ONNdaIatWq5a4UD3YRP//889NeNmziV7NmzdwVKTRZ2JMOFqewd05IAfj2229TQdmiRYvYf//9/7AaAwmhR48eqTDdc889U0EwZMiQ2GCDDdJKJvOCxIMAYbLhRhttFIMGDYrnnnsuTchlc6qyTkJkYvs999wTK6ywQtrM6sUXX0wTGffdd18nbsliAzs/P//88/Hll1/GjjvuGDvttFPuikjZ6N27dzzxxBPx3XffpUU8KCMplzt27JiOYmxc9lfQv3//ZEBivB188MGx+uqrz3NlRKp1vvnNN99M9RFlPhPV27Rpk8r8NddcM3766ad0nfrjoIMOyj256GFi/VdffZXqSOqktdZaK3cl4uqrr06bk7LzNfEnES+//HL07Nkzttpqq9hwww1zZ3+HCdnvvfdefPrpp3H44YenMpW0sOmmm6ZGUMpXfu+9996xzDLL5J4qHKxk+Morr0SzZs1i5ZVXLpMhPGHChPjwww9TAywrg+bTqFGj+Mc//hFt27ad56pXb731VrLJeCe20vy+deLEifHJJ5/E+++/n+ws8hP2GWlxhx12SM+//vrryR4j3PPT6KJm7NixKV9TZhxyyCGx7LLLpvPEM/Xo1ltvHUcffXQ0bdo0nV/UOByrQPTr1y+eeeaZ+O2331ICzhg/fnxqifjiiy/Slv6rrLJKbLPNNvPtBQEywSabbBLrrrtu+k1i++yzz+Lrr7/+n8w5L3799df0fiq00aNHR/fu3ePnn39O/hFZXMB4Im1269Yt5RkqI5EFYejQoUnEUgFjoLVv3z4GDBgQt956azIwWLqzJBjBi1PbHP758ccfU31CvYJBxYpwc4P7Kc9vuumm9O3LLbdcrLbaaulfGrwwqmDUqFEpb1F/zA/cLBa8Cz9iSA0ePDh3VuYG4vqDDz6Ijz/+OKXzfAYOHJhGWzCKAvthvfXWi8022yw1fiJCiHvSAEZ3MUA4Y8TTE1PWlngabkn/2DqrrrpqaoDdeOON05Etyz4vqDfI6wgxvhfBNi8IC4Tb3XffnWysdu3aRYcOHZJ/yVdZPYSfcHN+aZSypJj5hzINcUR6KFa8/hkcjlUASKwY9yRkMg3rU6PSSYwUrvfdd18SHyjoXr16xRtvvJFaBmiR4jqKndY7Co+uXbumBNykSZOU2DlHRUQLAPdx/PLLL6nFD4MN1YugmVcrGW6ikhEz+AlBgh/J1CKLA4jql156KUaMGJHyCgZTy5YtUz4BKgIqpQceeCDlCSoE7sVQo6WbvARUwrT20YqM8danT59UaZFHXC9+yadv377J6GD4Kq3nmfGTGfKUz/xNmUi5+uyzzyaDjl5ijDvKZtIOrc0YMCwBTdlLgw29x7TQMpyW3mT+powm/dHDgjHAMzxPuqQ+wD+k4wXZbJbWa55FUGHAffTRR7HlllvOdU8c8g7fhN9322232GeffZIAo/eEnhDKeowT/EweQ5RRDyFY+Dby1u23354MsHfeeSfdQ4s6dRD+p4eCg3DCTxi3mV/Iaxh8hAN/846svmIIFWAoU1fRsk240mND/sZN3kG43n///SlOcIcWaRrOeA/1HH/zPgxAwhUDm99Zi29Fg7IOIcFICVr6s3Cg14FeI2wE0g3xT2MOYb/88suneHr66adTjxhhSLqit4xWfspW8gIjLd59991kL2TlJvGMzUHccR9lbJcuXVL6z7YOwO1HH300pVvSGq3uCB/y3G233ZYaZ4lrfpN/iFfK5ieffDKlW9I8w+3wD24yegQBgLm6xRZbJDGF/UKPHu+bV1lO/icN0VuCH3g3QmZuz/Bu8ixpslOnTinsEDuELXmbOgj/cA+2E+kb97H5SOf8TdiQf7DjCBf8SLlDGPMc+YJnyat8J+UK7yVseO6///1vCgvCkTAi7We9tjQkUOc9/PDD6Tr5gTgkntgHhTghTIlTwpR3Am7gJnHBt5EuKCd4H/4mrBcF1sIFgMikciMzE8lZLwWFL4U9BTddyVREVFIkSAwoxAYJlO5KEgYZhsKfwoUKjecoRFC4iAyGFlAZkjjr16+fNjDkd8mKCaFBxkPZk4n5l8KJd/3f//1fyjT48+abb07nRRY1FKwYPBTQf/vb31L6xughLZOf6CWhNZvKi8qWCuquu+6Ke++9N+UT8hJ5imGH5BcKcp6lQnjsscfi+++/z71JlnQoDykXKZcx0DAmKJsxcClnKVMpE1977bVkMGEQkF6osCmbqbA5h7HcZbaxlTUM8S+/MdAoi3kGAwE3MkObNMrQItIez5CmS7ZWzw/c593ZsA/cod7gfaWRlffkCwwPvhXjEcMTYwoRktUf1DH8i5FE/cF3kn/uuOOOlHcwYrgXN8lj5C+MOsKUOglDBkOVsATqEnpgMJKouwhfDDKMIu4n75L3EDl8A78x4ngX+ZdGOIxD6jT8guGL34g7fgPhgaFFvYiBSvwhWjAC8WdFgzISkc3IBozjDNItYQzbbrttSpeUhfQwERdZ/HMgZChjOQc06hC+hDk9EQgDRCJhD7wLO4V4I85JkxjC2BCIS4xo4ob0zj3YPaRX4htxQ/whdskLDGu65ZZbkrGMv0hLGO+4nx+fpAsMeeym7OD3/BqT8AvfwVAk8gDfgIiaG/iR/EO4ELbkHfIRDRMIH8IqCzcO0mYmMniWbyMP8J3kAdIy38r3kQ/IX/iZOo5GNMKP6+QVvpuwILwIU/IKZQwik7DgHuLvoYceSu4QN3zfjTfemN7Hb/xEPFLmkaeJV/xAnsUNxDv1JvFBOOAWdevcypNCowgpAEQ2ihm1TuKhYCVBkYAoBMgItO5myjaDDEiBSoJGgTPW8ZhjjknzRUjg+ZAxUPN0s3P9tNNOi+OOOy5llKywzofEh/tkLio0Mg6Jk4KDygo/UWjwt8iihlZZhi4i5knjTKSjgqXyo3KlhY3KinzSuXPn1OIL5DOgQKVwx2Bi+MHJJ58cp5xySqqMcZuKoiIaLBUdyjiMXlodMc4xsCnzSGsYGEceeWRKU5nxzPAtytVTTz01DjvssGSY0eJIOiRtUbbT00D5e+KJJ8bOO++cjBTSKD0BGAqMQacsJw3utddeqewuK5TZtGiS1hEhtGIyNAQ/8C2lwTdhlPJ9NDRdd911yTCk1RT/kO4RY3wvreP0kvzzn/+Mo446as7YesIEd3bffff0/dRl1F08zzeS5+hZIm/iFxoFMjCEEDqEI9+Mf2nkosWcXg4MHowfxqvjDmHCu8i7vJu6iNZuho8RtviNOQvZGHYMV/5mbgzPU/9hWBFOFTFPY28Qh9gTiA7EGCAASKPYGsQr92VgwGfxT2/C8ccfn9Iof+MO6ScLX+KQeyl/KTsziGfijQZV7mH+DvmBuOZ+0g1u0BhEqz95bG4Q9/jl2GOPTekQ8YktRD7MQOBjoF911VXpuOaaa5IRn31vaZBPMehJ7wj4lVZaKb2L8n9uYLivv/76yd+IKt5JjxuNCQg5oF5C0OMe300aZc4ithvwDtIo33LEEUcke4seRcRMZtsRNqR3Gj/yvwEhQ5iSvw499NDkD/zLuxGH5B96LogbyhzqN8QOaZ+4w2/kV8quLF6xFYlz7iH/kF6IH54nr1NXUmYtChQhBYJET0Ig4aBUqUzIoGRkEgSJKL9QAH5TAFNB8kw2CZ1zJQULiRfFi+BA8ZJp81uL8sFdKkYKfQ4KJSrGE044IWUk5qScc845abIShZDIooQ8Q4FPmmf4DAU73cwIC0Q9BTYtOVRaFMAIFO7bfPPNUx4A7qWwpmClNYnWWlryEN0YoRxZhSJLNhg/GNA33HBD/Oc//0mtkaQpJmiTxjCkaDSiHGS4EiIB441hShjOtALTe4YhhQihRwBRwH08S+8xvR6kJ4xvjBiMbQw2JgCTLhnCwYFxRlldVngPjUbUFxg8CAvKaNI/fiut0Qg/YXAxERlDiHoEQ4cWaXo4+A6MEeqN7MBPGClZ/cE34G/eRV3GPeQn8h7fRS8ReQpRgpGHX7IGAPIq302DGH7GoKWll5ZfwoX76Y0i7xLu5GOMrixcsrqNf2l843wWT8Az1KG4zTtwn2vk6YooQoCwQGggPBCE2BuUexjhCDrCMx9sgizuiXPKTcKZ31wjvdELlj/kmx4E8kQG9/JOGnawUbL4IG8R/ww7RKRyjfQxN9EMpAHmuxK3PINwJa9hC2UgenAn8wv/Ikww2ucGaZ20hz/5JtId/qMe4XxpEA4MwUKAE470eNLLgCCh7Mh6iLKDtJml0cym49sJF8KDxl7KIHpCyD+IKxoHaBQgP+BHRATwPPmCcoK8i1hAjBOPCDLSOHUa91DnEV6IcPIp+YXn8VNmG2bxym+ucWCXclBv8h7KLMI5P6yLiSKkQBDpFMYkQlqKSLgYVqhQMhsJoyQk4v322y8lPhI+FR8VB4X/vFoR5gcVFX5AzT/xxBOpYqMSYzwoFRQJm7G/GGhZd6zIooLWHsQ6LZt01TNMAyOSCogeECoP8hEGGQUvUOBmY2sBg4gKikKeSpmCnoNKlAqPVqLMaJIlG4wXGoAwninjshZK5lVQ3mVpJyv7SBcY1xggCI4s7fA8QgKjl0Yd5tBhPCMSKFsZqkSZSsslIph0yruyNLmgYFDjX1r5MUK6dOmShk4gejDAaL2cm2HHt+y6667xr3/9K84666zU6MQy8LRSI8apj+YFz2P8ZIY/dQj5CX9Qd2RhQs86DVmESyYAsiEgQP7ELf5FpBEX/Jufd3kH4Y9RWxby3Qeeo77F3YoqQggT0iXpgfSB4EPscR57o6wQfhijpDPmdGAoI7DJB6SZ/IYb4hWDPos34pHfWQ8jYPQiJPFXaYI5g/jEr4C72dAmyvkMxMwZZ5wRF198cVxyySVx4YUXppEiiIvSyHrDsW/oSaAeyeYgETbUL6WB30nPuM076E2ggYJygWGbhMe8BBXwLaRp4Lux3ygXiBd6q8g72F5ZvGWNZ4QX4YctCIQDaZuyiCNL4/SoZHAv78ry07zAfZ7NRtZQNhHe+BH3FwWKkAJCIY6SxQiiYEBM0FqAOJlbgUtiP/fcc1MlSYsAip3CgMqoNEhU8yt4SWAYdShwKkkqRzImrVkYdqhzRMrc3iFSLEjL9ALS6kOhSJplbDAVB5US/5JmyT+0HmVCgn95Jr+io2WXFrXTTz89Le2ZHddee20avpUV/LJkg2HEeHCGb1x//fVpKMcee+zxh4qf9MS/GVTSGDf0Dl955ZV/SDsM2aKlkx5lhmlhGNFrgODF0MHgwS0amjg3L+NrXmC4YKggOMgX5APmWmBA0QuDgZgNw5gbGHe0kvK9Z555ZuohwfjCTfw4t/qjZJjwb2bQ0muehQdhSu8SgiwzPDGGsufy4T2Z0ZPv79Ly7rwMKtwu7fq8wqEigDFLrxW9eMx9ozGHlm6M97lRMp6IC0QmvR+sCsUww8svvzwNC8oXmjC3eFiYuJlXmskg7ZAn+cbsyHojS4M0Tn1BPUKvDvmH+oS0hxjGHpuXvzIxQq8DI0gY1kQaJU+SN+eVRrmWNT7wXbiFPcjQrUsvvXRO/uHA3qOxIqO0sMj8iSCB/EZpxBb5J7uHZ7PnS/u+kuE1r3uLwdxDUf40VAB0e5Go6H4jc2ermpQG6prMQgah4jjggANStzOtTbRClYRKggKdBEii5LnMKMuH+zp16pQKE7rwcJfET3fh9ttvnzIFFS1jfUUWJQhiWomoAEmTTLjLDsbAUrBznS5kKgMMKp5BVNNClbWckeapgGnVozIiXyBKKIAxDGlRmlclIksOxDNlLq2FlMnzi3fSGL1lVM40zJBWshZJylkacaj46VGmZ4C0iKhl+Abpi7SIwEEA04hEIxRplINhJBhFVPgMnSEtkx5Lg7qANE5vS34+YDERhBDv4R78kg9pnWuIFVpeqR84qEPwO/mA1lPyCN+KUcaBO6XVH8D99HjQk4g7fGc2xpz6ibqnLBAPjA7AOORgaAn5M394DOGeuU2YEeY0QMzNb/I79HTRcEl4Ym+QzhiKlRmZJSEOSdeEL/HP/RjZlJk8QxlM2uZv0tP8es8KDfGPH7GTsoPfc0sXCDHSDcPO8/MPjRAItmxob0lwl3zHcDa+mfDhPvI6kDbJN/ybCQDqHd41N6MfAUL8kCdxj/yE7Ua+IezL2lCBKKIxgHKDvJgNN8bdzA3KN+KVcgu/8T1ldX9RYC1cQEgMtEJQoTHciUqstEnmkBXmTGZk6TW6zClISGAUBBwloUBnDDMVGy0XjF1mGEHJBEchQuXLO7jG+EgyBYmUfym4WC5vbuJIpFjQY0hPRzbxjxbn7ECYkw8ocMlHFOB33nlnGrZIvsEgoyIg31HAM66X5xi73qVLl9Tzx73kLyoZkdLAwEDA0mBEDzFLqpN2OFiFiZ46jBL+5TfnKa+5l14X0i7l6i677JLuY/IsvdncR5mOkUc5zNAQBEVpw0K4jnhB6NASiwGT5QPKbybOMiQsWwI1H56lN4Y0z7Aa/MZBLw0CgmfJRwz7wKjBaOU6rcRcL82QQlQhtMhbDOllbDzfw3fxLG6UBYaCEK7A8DXyI/kTsYdBh/scjHWn7mQ4Db33DE8uzWCU/w/pljISo5fwYsw/v+cGZSSCEBHMnCFWgiMes7RBeiB+SLMYvflDoxYF2Ef4k/TCHA0OejcYalnS5kHQMoSXhofS6hEaYxEVpU1Qx3DHniJvZ+mbMOA3aRL3MtsLIZ8tFc1wzZJ5MYPnyD/kafIleYgD9xkiiTApC8xp4f30djE0jDxImBA25BvI4pX6kWtMiKeMQbAtjrhPSIGhYEB8UPFsvfXWqQDOxvuh4Cn0KXzpzqYCy8YgkzloKaM1jS48hAyKmXGFdN1RkeAO3ZEoYjIcCY37qQApiEqCkUYm4VkyD8YeiZpKU2RxABFChcLwFgrSfLKxsQhtlu2lEmCYIT2M5AWMM9I0K+mQBxDeCGwKaFq9mJNFyxYVEQU53fmyZIPhSmshaYUytCSkJ9IMZS+91rRuAuUjQ5eo2EljpB8ae0hTmVFDWUxZzTXSIIY6ZTWrWNHQRDnNQUMS5TmtyZTXvId7MbwxlnCPRqB8MCBwE/8hZkqmVYQCz3JQnmf+BhqdKP9J64ht/IcfyD/01uAeYgBDCn9geDJplvqGPERLK9+aTRTGLQ78SOs44YWRiyGE8cQQY8KWsKH+4tvxE98KhBMHdRzuMaQG45DnOQhr5mjRa8OwMYQR8cF5jDb8Rr3FMGb+JU6IG/I4EMeUCRiW+D8zxioipAPCiLAjnklbGaQl7A3inLjlX8QGcYOgJi0jdhHgxB32BOdIawwrx5Am/jHisUVIX6QJGoQAkYIg4BzvJb1h25DuiSueI22Qn7BTGM6IfYRdQpxn13kf7pAHEOCkUwRD1uJPHZEd+JH0h99wK4P7uU5ey1YOyyAt4y/EF26TbkqCbUa+oM4gDEjzlCEMkyft8W3kSRq9+B7sL9Id6Y+w4W8m52cNu3wXz5P2SfPkH/Ib8URYcY138j38pu7jHdSF5CnyK7035BvCkntxAz9SxnCdc+Rv3sl7EFOUO4QD8UzcZjYiYZ+VGbjP37wXd4pNpdkRvmgGglUgSEgcJMz8jAKcJ/Fwnsoj63YmWvidVSg8yznuh8wd7s3c4F7Oz60Q5h4OrnMvz2XuiywOZGk5S/Ml4ToHeYFKhEKcNEylRcsqBSpj1DMBk+UZ3MzyFO5mhyzZEO/EP3FdWjmXX6ZynfSRwbXs+SztZOUl7mXX+BeyNJX/nuw6R/Z8VtZn1+aV1ud2PfM3/2bu5ZNd53n+hny/Z/dzPbsv8xtQD5VWl2T34yYHz2TfzN/ZkJR8P2XPZO/GuCTvZu5jGNPKjHHGcsIYScAz2buyd/A37uWHSeZ+dk9FhvAhLLIwyg+P7Bpk8cy5LM44OM8zJcOeuMz+5jp/l+bWvM7xHO7k93gB7+d8dh14hm/AHc7xm/tKwjXuydzK4L3cn70nczdjfmkmu447HDzPwb357+Ke7D6ucfBsvt8zuCff3czNzA+cy/yc76fsuznH/Qj/bEgXbiGCWEYYIcNEekQIbnGN9/F3FkalhUlJ94uNIkREyh0MU2E4SzbGnxZTJhrSQ8LSpLQEicjiB63U5F1a4jGOaOFmuDJzFNlTwR5KkbnDsC+GKdL7Q+8Tw8FYhIA5kyxsRA9KeUIRIiLlDrrHGatPVzMFMYYLQwwYzsFwAISJiCx+0PPBPBmGijCcjCEgDJlh00KGluS3AovIH8nmomXzsBhmReMbIj5/WGZ5QREiIuUOupoxYBjnTBGG4UL3NGNvFSAiiy+l5V0m02JAmXdF5g35hvyTDaNiSDL1Xv68l/KEIkRERERERIqKzQ4iIiIiIlJUFCEiIiIiIlJUFCEiIiIiIlJUnBMiIrIIoQhmsiHr5+cXx6zZzmRDJh7+WXCXiYy8AzcX5QRg/MBeEXwfy0myTCvgR84zcZmJlotizXoRESkeihARkUUIOxbfddddaa+EzDgHDPSzzz477bzL6kF/BnZRfvvtt9P+DGedddb/7EZfTN56663o0qVLWg3psMMOSztpAzubP//882mHbzacLK+rvYiISNlwOJaIyCIE4cG+J4gOjPJTTz01HSeffHKstNJKqaeAtqJsJ97sKNl+VPKe/Ov0ggwdOjR69eqVlnfMvz4vt7Lz+b/5l94K3OR3di47smfmxsiRI+Obb75JguP1119P+7wAPSSEQ+/evZP7Gflul+Z+9v7S/FHauXxKXucQEZHiYE+IiMgiZNCgQXHNNdckcXDuueemnXCBHhEECEOn2FUao/2LL75IhvJqq60Wu+66a6y55prp+oABA+Kll15KG1mNHTs2bd64+eabx2677ZZ6Ubp27RoXXHBB9OjRI1ZZZZVo0KBBbL/99rHffvvFjTfeGCuuuGK6N9ut+pFHHomff/45/v73v0erVq3ijTfeSMfWW2+demwYPnbwwQfHGmusER999FG89tpraRd7nmfX3h122CG9ozQef/zxeOihh9JmW23bto0TTzwxuYtIokfozTffjFdeeSX1hPz666/xxBNPJH+PHz8+lltuudhxxx1jyy23jHr16iX37r333hg+fHjUrVs3hRNCZp111knfM3ny5PR8nz590ncfcMAB0aFDhxS2iL/vvvsunn766SSKGPZGeGbf7KZ5IiKFpfJFs8n9LSIiRWbcuHHx8ccfp9Z/jPGGDRsm8ZEZwQiMm266KQ3bWmuttZKBjLGNAY1Rzi7TCADOtWzZMtq1a5d6FXCTNqb27dsnd/r165d2q8bIZnf51VdfPZo1a5ZECL0wGO7169dP977wwgvx1VdfxbrrrhvLLLNMvP/++3H77bcnw33VVVdNz/Lur7/+Ohn5vJdzGPIM+8I9zpU2pIqejp9++in5EwGFCGNIFn5GZCEYDjrooPT9w4YNix9++CHtCoxgYVgZvSf4m4Nw4v0INJ5HYNSpUyftxv3pp5+msG3UqFHalZvv6du3bxJnvBeRdf311ydRR7gSjnwP71t55ZXnhIWIiBQGh2OJiCxi6Fmgt+L000+PI488Mo455pi49tprU6s+vQIY0/QuYJxz0BuAgY7QAHpP6BmhZ+PAAw9M/7Zp0yb1KiAcEAz0ntBTwbP77rtvrL/++lG7du30fFlgsjhCA7fpZcDYpwcEg50eBvy1//77p16Vd999N/VOzA16IvDPBhtskATJhx9+mLvy/0Eo8F177bXXHPc5eC9hxRySDNzje/iuo446KgkWejfwM6LrkEMOiQ033DA9h+gZM2ZMeie9T1zHXd6x++67JwGDoCPcRESkcChCREQWMRjRDCdiwjg9F/QSNG/ePPUoYBT37Nkznnrqqbj00kvj4osvjmeeeSa+/PLL1LvB3Aygx+Tuu+9O99x6661pgjcGPkOScJ9eCgx7hmdlq25xvqw0btw4NttssyQMEC/0StDbwHHDDTek4V70LHz++efpYFjYvOB76ZFp0qRJvPjii38QFZD5jR6fO+64Iy655JLUG/Pjjz+mcwiIjBYtWiRRQ+8IPTD8xl0EEeHIeXpJGNKFePvtt99SuNLr8cADD6Qwvfzyy1OPCj0x/fv3T+EmIiKFQxEiIrKIQRAgPGixP/bYY+Poo4+OXXbZJc2rYCI3YoQhRQwt4uDevffeO7bYYovUYo8QwFBniBEigyFdGPlc41jQqX+lTdJGuDA0Cxg6hgjAUMdfmd8w/BnuRG8JomV+8B0bbbRRElD0nuSDYMhW0qL3gvfzXfSEMJk9f/I680OyoV+Z4OIcYQAM2+I6z+BnwoTeEK5nYco3IFroiWL+CG6IiEjhUISIiCxi8g1nhAcHxjbzIpibwJwIhg117tw5Hayeddppp6VJ4PQ4ZMOMOnXqFCeccEL6l6FTGN+ICdynF6Q0MYJxznwKDkBcMPwr62HJ4PlsnkrWo4Lhjog47rjj/uA3hBRDwOYH38gwKXqA6IWglyKD3grmogCihgnsiDN6OSD/W/BPyV6d0s4BzxEuCA/cQnSccsopc/zPqmRrr732HFEjIiKFQREiIrKYghFNzwJDlZi0Ta8IrfkID3o9mJCOyKBlPxMs/MswLSZZZ8ICgxyDn/sQKzzPNQxyhi+xUhXDnJi4zlwJhn/Nq/cE9+j1YAgUw77wS9brgp8Y0lTW4UzMXWGYF9/GHJesB4Z/cYNeoGwlLJYYZnI57/kzEE5MxCcsunfvnkQX4UrvCCtx0dNSmoAREZG/DkWIiMhiCsY+E9IxmDH2mRNx8803p6VsWZIXsYFBzVK5GOusosU9TEjPH67ENSZrM5+D+SS4wSpWGN/bbbdduodVphjSxZK79IbQWzAvmOS+zz77JLHw6KOPpnczF4Xld5lvwZyRssDkcVbhYoUsREYmfhgqtd5666VVwe67776488470/As/PVnh0oharbaaqu0KhYT/2+55ZYUJsypyeanzEuEiYjIn8clekVEFiHZPAUmTzOEquQwIEQGAgLjmxWnaK1nKBTzKRAf9EgwLIqeDq7TS8AmhxjZzOFg8jcGPe4woZweB+5jOBLucrB7Oe6ySheGP3MiWAoY93kO/+EGQ6d4DyBssqVyGTqFm/Su8E5EE89zT0noZeAbWVUrG1qFv/APvQ+8g13i8ROiCSGGnxEFuItwYPgWfsNPvJuhXywdzJwRYD5JJs6yeSx8A24gdpivwpA3wolhZ/gdQcY7iQN6ePhbREQKh5sVioiIiIhIUXE4loiIiIiIFBVFiIiIiIiIFBVFiIiIiIiIFBVFiIiIiIiIFBVFiIiIiIiIFBVFiIiIiIiIFBVFiIiIiIiIFBVFiIiIiIiIFBVFiIiIiIiIFBVFiIiIiIiIFJGI/wf+kmcy4U01qAAAAABJRU5ErkJggg==;" vertex="1" parent="1">
                    <mxGeometry x="1061.27" y="205" width="553.78" height="280" as="geometry"/>
                </mxCell>
                <mxCell id="224" value="&lt;font color=&quot;#ffffff&quot; style=&quot;font-size: 72px;&quot;&gt;+&lt;/font&gt;" style="text;strokeColor=none;align=center;fillColor=none;html=1;verticalAlign=middle;whiteSpace=wrap;rounded=0;fontSize=18;" vertex="1" parent="1">
                    <mxGeometry x="200" y="430" width="60" height="30" as="geometry"/>
                </mxCell>
                <mxCell id="225" value="&lt;font color=&quot;#ffffff&quot;&gt;+&lt;/font&gt;" style="text;strokeColor=none;align=center;fillColor=none;html=1;verticalAlign=middle;whiteSpace=wrap;rounded=0;strokeWidth=7;fontSize=72;fontColor=none;" vertex="1" parent="1">
                    <mxGeometry x="200" y="230" width="60" height="30" as="geometry"/>
                </mxCell>
            </root>
        </mxGraphModel>
    </diagram>
</mxfile>